<?xml version="1.0" encoding="utf-8"?>
<!-- Generator: Adobe Illustrator 16.0.0, SVG Export Plug-In . SVG Version: 6.00 Build 0)  -->
<!DOCTYPE svg PUBLIC "-//W3C//DTD SVG 1.1//EN" "http://www.w3.org/Graphics/SVG/1.1/DTD/svg11.dtd">
<svg version="1.1" id="Capa_1" xmlns="http://www.w3.org/2000/svg" xmlns:xlink="http://www.w3.org/1999/xlink" x="0px" y="0px"
	 width="32px" height="32px" viewBox="0 0 32 32" enable-background="new 0 0 32 32" xml:space="preserve">
<rect fill="#E0E1E9" width="32" height="32"/>
<g>
	<path fill="#A3A2B6" d="M19.928,19.813l1.584-1.518l-5.495-5.398l-5.495,5.398l1.584,1.518c0.809-0.773,1.776-1.68,2.585-2.65
		v7.111H9.132c-2.747,0-5.01-2.037-5.01-4.781c0-2.068,1.389-3.879,3.297-4.527c0.227-4.039,3.556-7.24,7.692-7.24
		c3.072,0,5.72,1.811,6.947,4.43c3.232,0.127,5.818,2.779,5.818,6.043c0,3.363-2.715,6.076-6.365,6.076h-4.137v-7.143
		C18.148,18.103,19.15,19.04,19.928,19.813z"/>
</g>
</svg>
