<svg id="Layer_1" data-name="Layer 1" xmlns="http://www.w3.org/2000/svg" viewBox="0 0 57 57"><defs><style>.cls-1{fill:#f44336;}.cls-2{fill:#fff;}.cls-3{fill:#e2e4e5;}.cls-4{fill:#64b5f6;}.cls-5{fill:#1e88e5;}.cls-6{fill:#545454;}</style></defs><title>mail</title><circle class="cls-1" cx="28.5" cy="28.5" r="28.5"/><path class="cls-2" d="M16.06,13.91a2,2,0,0,1,2-2H32.65l8.29,7V43.09a2,2,0,0,1-2,2H18.05a2,2,0,0,1-2-2V13.91Z"/><path class="cls-3" d="M32.65,11.92v5a2,2,0,0,0,2,2h6.3"/><rect class="cls-4" x="20.21" y="23.32" width="16.58" height="11.4"/><polygon class="cls-5" points="22.14 33.1 21.64 32.19 24.72 30.51 26.86 31.47 30.62 25.02 35.11 30.23 34.33 30.91 30.78 26.8 27.29 32.79 24.77 31.67 22.14 33.1"/><path class="cls-6" d="M37.05,34.72H20a0.78,0.78,0,1,0,0,1.55h7.56l-4.15,4.15c-0.28.28-.19,0.52,0.21,0.52a2,2,0,0,0,1.25-.52L28,37.26v3.15a0.52,0.52,0,0,0,1,0V37.26l3.15,3.15a2,2,0,0,0,1.25.52c0.4,0,.5-0.23.21-0.52l-4.15-4.15h7.56A0.78,0.78,0,1,0,37.05,34.72Z"/><path class="cls-6" d="M37.83,22.54a0.78,0.78,0,0,1-.78.78H20a0.78,0.78,0,0,1,0-1.55h17.1A0.78,0.78,0,0,1,37.83,22.54Z"/><polygon class="cls-2" points="30.05 30.79 26.43 27.16 23.06 30.53 21.4 28.87 22.13 28.13 23.06 29.06 26.43 25.7 30.05 29.32 34.35 25.02 35.09 25.76 30.05 30.79"/></svg>