<?xml version="1.0" encoding="UTF-8" standalone="no"?>
<svg width="122px" height="93px" viewBox="0 0 122 93" version="1.1" xmlns="http://www.w3.org/2000/svg" xmlns:xlink="http://www.w3.org/1999/xlink">
    <!-- Generator: Sketch 3.7.2 (28276) - http://www.bohemiancoding.com/sketch -->
    <title>ey</title>
    <desc>Created with Sketch.</desc>
    <defs></defs>
    <g id="Page-1" stroke="none" stroke-width="1" fill="none" fill-rule="evenodd">
        <g id="ey" transform="translate(1.000000, 1.000000)">
            <path d="M95.8243376,38.6571316 C108.61507,40.0083158 118.583971,50.8829211 118.583971,64.0963421 C118.583971,78.2239737 107.189427,89.6776579 93.1321099,89.6776579 L23.6172584,89.6776579" id="Stroke-1" stroke="#666B81" stroke-width="3" stroke-linecap="round" stroke-linejoin="round"></path>
            <path d="M80.3066198,41.9964868 C84.072204,39.7831974 88.4551743,38.5160921 93.132699,38.5160921 C94.0422832,38.5160921 94.9400851,38.5634605 95.8237485,38.6570132" id="Stroke-3" stroke="#666B81" stroke-width="3" stroke-linecap="round" stroke-linejoin="round"></path>
            <path d="M23.5933406,89.6773026 C11.0017267,89.6773026 0.794825743,79.4184868 0.794825743,66.7628289 C0.794825743,54.1071711 11.0017267,43.8483553 23.5933406,43.8483553 C27.2517069,43.8483553 30.708598,44.7140132 33.7719644,46.2534868 L33.6824198,45.8094079 C33.6824198,28.3411184 47.7727267,14.1791447 65.153796,14.1791447 C79.9451426,14.1791447 92.3529545,24.4355921 95.7226574,38.2588816" id="Stroke-5" stroke="#666B81" stroke-width="3" stroke-linecap="round" stroke-linejoin="round"></path>
            <path d="M12.4484604,29.5728158 C12.4484604,27.8284737 13.8552525,26.4145263 15.5907673,26.4145263 C17.325104,26.4145263 18.731896,27.8284737 18.731896,29.5728158 C18.731896,31.3171579 17.325104,32.7311053 15.5907673,32.7311053 C13.8552525,32.7311053 12.4484604,31.3171579 12.4484604,29.5728158" id="Fill-7" fill="#666B81"></path>
            <path d="M33.3763188,16.1013553 C33.3763188,14.3570132 34.7831109,12.9430658 36.5186257,12.9430658 C38.2529624,12.9430658 39.6597545,14.3570132 39.6597545,16.1013553 C39.6597545,17.8456974 38.2529624,19.2596447 36.5186257,19.2596447 C34.7831109,19.2596447 33.3763188,17.8456974 33.3763188,16.1013553" id="Fill-9" fill="#666B81"></path>
            <path d="M3.83392079,53.8590789 C1.74847525,49.1542105 0.589108911,43.9436842 0.589108911,38.4619737 C0.589108911,17.5464474 17.4576535,0.592105263 38.2673366,0.592105263 C49.2400792,0.592105263 59.1182574,5.30763158 66.0049406,12.8321053" id="Stroke-11" stroke="#666B81" stroke-width="3" stroke-linecap="round" stroke-linejoin="round"></path>
            <path d="M56.9987614,73.0582105 C56.9987614,69.7886053 59.6367911,67.1371579 62.8898505,67.1371579 C66.1429099,67.1371579 68.7809396,69.7886053 68.7809396,73.0582105 C68.7809396,76.3278158 66.1429099,78.9792632 62.8898505,78.9792632 C59.6367911,78.9792632 56.9987614,76.3278158 56.9987614,73.0582105 L56.9987614,73.0582105 Z" id="Stroke-13" stroke="#666B81" stroke-width="3" stroke-linecap="round" stroke-linejoin="round"></path>
            <path d="M86.505695,59.1729868 C77.8139822,57.6631184 73.545299,59.1729868 73.545299,59.1729868" id="Stroke-15" stroke="#666B81" stroke-width="3" stroke-linecap="round" stroke-linejoin="round"></path>
            <path d="M37.0101782,59.1366316 C45.4132277,55.8871579 49.9623267,59.6043947 49.9623267,59.6043947" id="Stroke-17" stroke="#666B81" stroke-width="3" stroke-linecap="round" stroke-linejoin="round"></path>
        </g>
    </g>
</svg>