<?xml version="1.0" encoding="UTF-8" standalone="no"?>
<svg width="152px" height="34px" viewBox="0 0 152 34" version="1.1" xmlns="http://www.w3.org/2000/svg" xmlns:xlink="http://www.w3.org/1999/xlink">
    <!-- Generator: Sketch 3.8.3 (29802) - http://www.bohemiancoding.com/sketch -->
    <title>Group 5 Copy 6</title>
    <desc>Created with Sketch.</desc>
    <defs>
        <path d="M116.915925,32.4500592 L118.291263,21.9036641 C118.291263,21.9036641 125.798596,21.701878 127.393146,22.372705 C128.987697,23.0435319 131.233448,24.5137373 130.510498,26.7905522 C131.871234,24.5137366 136.644539,24.4808577 137.684154,26.723262 C139.3064,24.7999664 140.17636,22.8733885 140.17636,22.8733885 L147.245756,22.3727058 L153.663105,24.970455 L140.62646,5.07335118 L1.55964677,0.168389567 L0.343534532,38.4853864 L116.915925,32.4500592 Z" id="path-1"></path>
        <linearGradient x1="0.0871201158%" y1="50.0056884%" x2="100.027641%" y2="50.0056884%" id="linearGradient-3">
            <stop stop-color="#1C94E0" offset="0%"></stop>
            <stop stop-color="#1CBCD6" offset="8.83%"></stop>
            <stop stop-color="#72E0FA" offset="33.6%"></stop>
            <stop stop-color="#CAF183" offset="79.17%"></stop>
            <stop stop-color="#9CEF61" offset="100%"></stop>
        </linearGradient>
        <linearGradient x1="-27.7723319%" y1="79.726108%" x2="90.3239547%" y2="22.7620168%" id="linearGradient-4">
            <stop stop-color="#2C97CD" offset="0.081539%"></stop>
            <stop stop-color="#1CCBDB" offset="20.6%"></stop>
            <stop stop-color="#19D7DB" offset="34.91%"></stop>
            <stop stop-color="#59D6B8" offset="53.82%"></stop>
            <stop stop-color="#6BD5B5" offset="71.81%"></stop>
            <stop stop-color="#70E4A3" offset="82.03%"></stop>
            <stop stop-color="#79E990" offset="89.64%"></stop>
            <stop stop-color="#8CE079" offset="99.1928412%"></stop>
        </linearGradient>
        <linearGradient x1="-0.0400335008%" y1="49.9527235%" x2="100.010609%" y2="49.9527235%" id="linearGradient-5">
            <stop stop-color="#1F7CCE" offset="0%"></stop>
            <stop stop-color="#4273D2" offset="15.5%"></stop>
            <stop stop-color="#2FADE0" offset="37.29%"></stop>
            <stop stop-color="#4AD3C9" offset="60.69%"></stop>
            <stop stop-color="#BDE186" offset="100%"></stop>
        </linearGradient>
        <linearGradient x1="-0.031292517%" y1="49.9806452%" x2="99.9383673%" y2="49.9806452%" id="linearGradient-6">
            <stop stop-color="#1C94E0" offset="0%"></stop>
            <stop stop-color="#1CBCD6" offset="8.83%"></stop>
            <stop stop-color="#72E0FA" offset="33.6%"></stop>
            <stop stop-color="#CAF183" offset="79.17%"></stop>
            <stop stop-color="#9CEF61" offset="100%"></stop>
        </linearGradient>
        <linearGradient x1="-0.0476953908%" y1="50.011002%" x2="99.8800601%" y2="50.011002%" id="linearGradient-7">
            <stop stop-color="#2C97CD" offset="0.081539%"></stop>
            <stop stop-color="#1CCBDB" offset="20.6%"></stop>
            <stop stop-color="#19D7DB" offset="34.91%"></stop>
            <stop stop-color="#59D6B8" offset="53.82%"></stop>
            <stop stop-color="#6BD5B5" offset="71.81%"></stop>
            <stop stop-color="#70E4A3" offset="82.03%"></stop>
            <stop stop-color="#79E990" offset="89.64%"></stop>
            <stop stop-color="#8CE079" offset="100%"></stop>
        </linearGradient>
        <linearGradient x1="99.9359777%" y1="49.9625819%" x2="-0.0404314544%" y2="49.9625819%" id="linearGradient-8">
            <stop stop-color="#1F7CCE" offset="0%"></stop>
            <stop stop-color="#4273D2" offset="15.5%"></stop>
            <stop stop-color="#2FADE0" offset="69.24%"></stop>
            <stop stop-color="#4AD3C9" offset="100%"></stop>
            <stop stop-color="#BDE186" offset="100%"></stop>
        </linearGradient>
    </defs>
    <g id="Welcome" stroke="none" stroke-width="1" fill="none" fill-rule="evenodd">
        <g id="Group-5-Copy-6" transform="translate(-3.000000, -3.000000)">
            <g id="Group-4">
                <g id="Group-3" transform="translate(118.097357, 23.192463)" fill="#F6510B">
                    <path d="M6.11824788,5.49214355 C6.30882007,5.49214355 7.98160194,5.44597008 7.98160194,3.8439004 C7.98160194,3.2394779 7.77408261,2.54570889 6.15513282,2.54570889 L3.97377076,2.54570889 L3.67536827,5.49214355 L6.11824788,5.49214355 Z M5.53041492,11.1871504 C7.01478453,11.1871504 7.70612793,10.6165662 7.70612793,9.39138545 C7.70612793,8.6582773 7.49993779,7.9090001 5.97120656,7.9090001 L3.4213274,7.9090001 L3.07058818,11.1871504 L5.53041492,11.1871504 Z M0,13.7330259 L1.42970679,0 L5.97120656,0 C8.21354507,0 10.8865402,0.567750423 10.8865402,3.27264946 C10.8865402,4.45349033 10.4013869,5.86969925 9.07784894,6.54446546 C10.1086335,7.10221441 10.5926237,8.00668118 10.5926237,9.35454668 C10.5926237,12.0961178 8.5697672,13.7330259 5.18133717,13.7330259 L0,13.7330259 Z" id="Fill-1"></path>
                    <path d="M15.8969107,5.63566473 C14.555761,5.63566473 14.1721244,7.06387542 14.0629649,7.93517063 C15.8949169,7.67479888 16.823354,7.15855606 16.823354,6.39927738 C16.823354,5.91403913 16.4857405,5.63566473 15.8969107,5.63566473 M15.6947081,13.6528475 C12.7738196,13.6528475 11.165171,12.0454437 11.165171,9.12684643 C11.165171,5.69283983 13.2865535,3.20047215 16.2091035,3.20047215 C18.2371106,3.20047215 19.5996934,4.39698199 19.5996934,6.17807808 C19.5996934,8.76529309 16.765036,9.60091636 14.1859147,10.0139773 C14.4426139,10.838599 15.0370928,11.1808161 16.1723847,11.1808161 C16.8869889,11.1808161 17.6256845,11.0489633 18.3682017,10.7892583 L18.7387125,10.6595725 L18.4791888,13.1686093 L18.3225108,13.2176166 C17.0878622,13.6033401 16.2695815,13.6528475 15.6947081,13.6528475" id="Fill-5"></path>
                    <path d="M24.0641004,13.6396788 C22.1146814,13.6396788 21.0410306,12.6016924 21.0410306,10.7172477 C21.0410306,10.5235525 21.0599715,10.3138549 21.0782478,10.111325 L21.5112305,5.71467638 L20.2036428,5.71467638 L20.4608405,3.39000011 L21.7862061,3.39000011 L22.1352838,0.533412024 L24.8014669,0.533412024 L24.4892741,3.39000011 L26.9512607,3.39000011 L26.6937307,5.71467638 L24.2515157,5.71467638 L23.7975984,9.98830685 C23.7592181,10.3608618 23.8177023,10.6367358 23.9712234,10.8077611 C24.14435,11.0002895 24.4572074,11.09397 24.9275735,11.09397 C25.2513967,11.09397 25.657131,11.0362948 26.0404353,10.9361133 L26.3878516,10.8450999 L26.1306539,13.3538033 L25.9566965,13.3938092 C25.2354464,13.5593337 24.6163776,13.6396788 24.0641004,13.6396788" id="Fill-9"></path>
                    <path d="M32.985936,5.69100623 C30.4056516,5.69100623 30.0203536,7.71663839 30.0203536,8.92414986 C30.0203536,10.811595 30.78447,11.1808161 32.1041865,11.1808161 C32.4012598,11.1808161 32.6305446,11.1683143 32.8503589,11.1394767 L33.4270599,5.71000903 C33.2575886,5.6991741 33.1032367,5.69100623 32.985936,5.69100623 M31.8654313,13.6528475 C28.7579582,13.6528475 27.1154153,12.0942842 27.1154153,9.14551585 C27.1154153,5.42279999 29.509115,3.20047215 33.5187738,3.20047215 C34.4178027,3.20047215 35.2832696,3.29898668 36.1645206,3.50168325 L36.380015,3.55135724 L35.3653469,13.1362712 L35.2038507,13.1824447 C34.0996285,13.4989914 33.0077014,13.6528475 31.8654313,13.6528475" id="Fill-13"></path>
                </g>
                <g id="Group-2">
                    <mask id="mask-2" fill="white">
                        <use xlink:href="#path-1"></use>
                    </mask>
                    <g id="Mask"></g>
                    <g mask="url(#mask-2)" id="logo-open365-copy">
                        <g transform="translate(3.015252, 3.025104)">
                            <g>
                                <g id="Layer_1">
                                    <g id="Group">
                                        <g transform="translate(38.252716, 6.196379)" id="Shape" fill="#404455">
                                            <path d="M0.0683084219,9.44603493 C0.0683084219,3.77290608 3.3197893,0.110157842 8.34728915,0.110157842 C12.8693067,0.110157842 16.4213446,3.0981893 16.4213446,8.95032464 C16.4213446,14.595914 13.1288787,18.0658861 8.15602557,18.0658861 C3.98921184,18.0796558 0.0683084219,15.669953 0.0683084219,9.44603493 L0.0683084219,9.44603493 Z M13.9895648,9.00540357 C13.9895648,4.83317531 12.0905907,2.31331468 8.33362747,2.31331468 C4.57666426,2.31331468 2.48642656,4.88825423 2.48642656,9.19817979 C2.48642656,13.728421 4.79525121,15.8902687 8.18334894,15.8902687 C11.5851083,15.8902687 13.9895648,13.7421908 13.9895648,9.00540357 L13.9895648,9.00540357 Z"></path>
                                            <path d="M19.2766366,5.35642506 C20.4515415,5.06726072 22.6647344,4.91579369 23.8669626,4.91579369 C27.528294,4.91579369 30.7387898,6.25145752 30.7387898,11.2223301 C30.7387898,16.2207422 27.487309,18.0796558 23.5527439,18.0796558 C22.9243064,18.0796558 22.2275605,18.0383466 21.5308146,17.9557282 L21.5308146,22.7338246 L19.2766366,22.7338246 L19.2766366,5.35642506 L19.2766366,5.35642506 Z M28.3479951,11.3600274 C28.3479951,7.87628569 26.2987424,6.96748349 23.5937289,6.96748349 C23.0882466,6.96748349 22.3368539,7.02256241 21.5444763,7.11895052 L21.5444763,15.8489595 C22.2002371,15.9453476 22.896983,16.0141962 23.5937289,16.0141962 C26.5583144,16.0141962 28.3479951,14.6096838 28.3479951,11.3600274 L28.3479951,11.3600274 Z"></path>
                                            <path d="M43.8266835,10.7266198 C43.8266835,11.2085604 43.7993601,11.7180404 43.7310517,12.2550599 L35.1651756,12.2550599 C35.4110859,14.6785324 36.6816225,16.0141962 39.7145165,16.0141962 C40.7937895,16.0141962 42.0916495,15.8489595 43.4441563,15.3807887 L43.4441563,17.4187087 C41.9550327,17.8731098 40.4659091,18.0796558 39.2636809,18.0796558 C35.493056,18.0796558 32.7743808,16.0692752 32.7743808,11.635422 C32.7743808,7.54581216 35.0285587,4.91579369 38.566935,4.91579369 C41.3265952,4.91579369 43.8266835,6.56816132 43.8266835,10.7266198 L43.8266835,10.7266198 Z M35.1788373,10.409916 L41.4358887,10.409916 C41.5315205,8.17921975 40.3566156,6.93994403 38.4029948,6.93994403 C36.5176823,6.95371376 35.3974242,8.08283164 35.1788373,10.409916 L35.1788373,10.409916 Z"></path>
                                            <path d="M57.5156912,17.8318006 L55.2615133,17.8318006 L55.2615133,9.34964682 C55.2615133,7.89005542 54.3188571,7.05010187 52.501853,7.05010187 C50.7258341,7.05010187 49.5372675,7.87628569 48.8268599,8.67493004 L48.8268599,17.8318006 L46.572682,17.8318006 L46.572682,5.24626721 L48.7858749,5.24626721 L48.7858749,6.40292455 C49.865148,5.48035263 51.3132865,4.90202396 53.1576139,4.90202396 C55.7260105,4.90202396 57.5293529,6.16883914 57.5293529,8.82639707 L57.5293529,17.8318006 L57.5156912,17.8318006 Z"></path>
                                            <path d="M66.5733879,8.55100247 C68.7865808,8.89524572 70.466968,10.0519031 70.466968,12.8884675 C70.466968,16.7715314 67.4887208,18.0796558 63.8547127,18.0796558 C62.4338976,18.0796558 61.3819479,17.8868796 60.2480281,17.6665639 L60.2480281,15.5597952 C61.2863161,15.8076503 62.3655892,16.0004265 63.6634492,16.0004265 C66.3138159,16.0004265 68.1854667,14.953927 68.1854667,12.7783096 C68.1854667,10.6026923 66.3274776,9.87289657 63.2262753,9.87289657 L62.5295294,9.87289657 L62.5295294,7.8349765 L63.2262753,7.8349765 C65.9176271,7.8349765 67.5980143,6.52685213 67.5980143,4.64039908 C67.5980143,2.87787362 66.136214,2.28577522 64.278225,2.28577522 C63.1033201,2.28577522 61.6141965,2.45101198 60.4802767,2.69886712 L60.4802767,0.61963786 C61.7098283,0.330473525 63.2672603,0.137697302 64.4968119,0.137697302 C67.9805414,0.137697302 69.8658539,1.54220978 69.8658539,4.13091907 C69.8658539,6.23768779 68.6636256,7.73858838 66.5733879,8.49592355 L66.5733879,8.55100247 L66.5733879,8.55100247 Z"></path>
                                            <path d="M84.6341347,12.2275204 C84.6341347,15.7663411 82.5165736,18.0658861 78.9098889,18.0658861 C74.4835032,18.0658861 72.9943796,14.595914 72.9943796,10.1207517 C72.9943796,4.57155043 75.0436322,0.110157842 81.0547734,0.110157842 C81.7105342,0.110157842 82.6941755,0.165236763 83.9920355,0.426861637 L83.9920355,2.5060909 C82.7351605,2.24446603 81.5602557,2.16184764 80.8361864,2.16184764 C77.6120289,2.16184764 75.8633333,3.92437311 75.3715127,7.93136461 C76.6010643,7.3805754 78.0218794,7.0638716 79.4153712,7.0638716 C82.8307923,7.07764133 84.6341347,8.90901545 84.6341347,12.2275204 L84.6341347,12.2275204 Z M75.2622192,10.3961463 C75.2622192,13.1776318 75.8360099,16.0417357 79.0601675,16.0417357 C81.4646239,16.0417357 82.3526334,14.5132957 82.3526334,12.4478361 C82.3526334,9.95551495 81.0547734,9.07425222 79.0055207,9.07425222 C77.5847055,9.07425222 76.2595222,9.48734412 75.2485575,9.92797549 L75.2485575,10.3961463 L75.2622192,10.3961463 Z"></path>
                                            <path d="M91.0551263,16.0141962 C93.7738015,16.0141962 95.4815121,14.9676968 95.4815121,12.5993032 C95.4815121,9.8866663 93.7328165,9.28079817 90.4540122,9.28079817 L87.5167501,9.28079817 L87.5167501,0.440631367 L96.8476805,0.440631367 L96.8476805,2.57493955 L89.6616345,2.57493955 L89.6616345,7.27041756 L91.1234348,7.27041756 C95.959671,7.27041756 97.7630134,9.23948898 97.7630134,12.4616059 C97.7630134,15.4909465 95.9323477,18.0796558 91.2463899,18.0796558 C89.8528981,18.0796558 88.213496,17.914419 87.0385911,17.6665639 L87.0385911,15.5597952 C88.1315259,15.7938806 89.4703709,16.0141962 91.0551263,16.0141962 L91.0551263,16.0141962 Z"></path>
                                        </g>
                                        <g id="Shape" fill="#FFFFFF">
                                            <path d="M9.22163695,25.776935 C5.81987754,23.5186992 3.78428657,19.7320234 3.78428657,15.6286438 C3.78428657,10.767929 6.6395786,6.38915482 11.079626,4.47516232 L13.2245105,9.50111385 C10.7927307,10.5613831 9.22163695,12.9573161 9.22163695,15.6286438 C9.22163695,17.8868796 10.3418951,19.9661088 12.2135458,21.2053845 L9.22163695,25.776935 L9.22163695,25.776935 Z"></path>
                                            <path d="M14.0715349,29.4534529 C11.4621532,29.4534529 8.93474158,28.6961178 6.74887208,27.2502961 L10.4785119,21.5358581 C11.5441233,22.2381143 12.7873366,22.609897 14.0715349,22.609897 C17.6782196,22.609897 20.6154817,19.649405 20.6154817,16.0141962 C20.6154817,13.9487367 19.6864872,12.0485139 18.0607467,10.7816988 L22.2002371,5.37019479 C25.5063647,7.93136461 27.4053388,11.8144285 27.4053388,16.0141962 C27.3916772,23.4223111 21.4215211,29.4534529 14.0715349,29.4534529 L14.0715349,29.4534529 Z"></path>
                                            <path d="M18.2520103,32.7719579 L16.0798025,22.0453381 C18.8804478,21.4670094 20.9160388,18.9471488 20.9160388,16.0555054 C20.9160388,13.4805659 19.30396,11.1672512 16.8995036,10.2997582 L20.5744967,0 C27.268722,2.42347252 31.7634162,8.88147599 31.7634162,16.0555054 C31.7634162,20.007418 30.383586,23.8629425 27.8971595,26.9060529 C25.451718,29.907854 22.0226352,31.9870833 18.2520103,32.7719579 L18.2520103,32.7719579 Z"></path>
                                            <path d="M14.372092,30.5688011 C10.9020241,30.5688011 7.56857314,29.3019859 4.95919143,27.0162107 C2.37713308,24.7442052 0.683084219,21.6322462 0.191263581,18.2311228 L7.34998619,17.1708536 C7.59589651,18.8507607 8.42925926,20.3929705 9.71345759,21.5220883 C10.9976559,22.6512062 12.6643814,23.2846138 14.372092,23.2846138 C16.3120511,23.2846138 18.1153935,22.5135089 19.4679002,21.1089964 L24.6593403,26.1900269 C21.9406651,28.9990518 18.2793337,30.5688011 14.372092,30.5688011 L14.372092,30.5688011 Z"></path>
                                            <path d="M9.34459211,11.0570934 L4.23512215,5.89344454 C6.94013566,3.16703795 10.5468203,1.66613736 14.372092,1.66613736 C18.1017318,1.66613736 21.6264464,3.0981893 24.3177982,5.70066831 L19.30396,10.9607053 C17.9787766,9.66635062 16.230081,8.96409437 14.3857536,8.96409437 C12.4731178,8.96409437 10.6834372,9.70765981 9.34459211,11.0570934 L9.34459211,11.0570934 Z"></path>
                                            <path d="M8.15602557,15.2568611 L0.0546467375,14.444447 C0.314218741,11.7731193 1.3115217,9.21194952 2.90993877,7.03633214 C5.20510175,3.92437311 8.55221442,1.87268331 12.3501627,1.23927572 L13.6890077,9.33587709 C11.9812972,9.62504143 10.4785119,10.5476134 9.45388558,11.9383561 C8.71615463,12.9160069 8.26531904,14.0588946 8.15602557,15.2568611 L8.15602557,15.2568611 Z"></path>
                                            <path d="M26.6402845,18.3412807 L23.0745849,17.7354125 C23.156555,17.2397022 23.1975401,16.743992 23.1975401,16.2345119 C23.1975401,11.2774091 19.2083282,7.25664783 14.2901219,7.25664783 C12.4731178,7.25664783 10.7244222,7.80743704 9.24896032,8.8401668 L7.19970766,5.83836561 C9.28994537,4.37877421 11.7490486,3.62143905 14.3037835,3.62143905 C21.2165958,3.62143905 26.8315481,9.28079817 26.8315481,16.2482817 C26.8178864,16.9367682 26.7632397,17.6527941 26.6402845,18.3412807 L26.6402845,18.3412807 Z"></path>
                                        </g>
                                        <g id="Shape">
                                            <path d="M9.22163695,25.776935 C5.81987754,23.5186992 3.78428657,19.7320234 3.78428657,15.6286438 C3.78428657,10.767929 6.6395786,6.38915482 11.079626,4.47516232 L13.2245105,9.50111385 C10.7927307,10.5613831 9.22163695,12.9573161 9.22163695,15.6286438 C9.22163695,17.8868796 10.3418951,19.9661088 12.2135458,21.2053845 L9.22163695,25.776935 L9.22163695,25.776935 Z" fill="url(#linearGradient-3)"></path>
                                            <path d="M14.0715349,29.4534529 C11.4621532,29.4534529 8.93474158,28.6961178 6.74887208,27.2502961 L10.4785119,21.5358581 C11.5441233,22.2381143 12.7873366,22.609897 14.0715349,22.609897 C17.6782196,22.609897 20.6154817,19.649405 20.6154817,16.0141962 C20.6154817,13.9487367 19.6864872,12.0485139 18.0607467,10.7816988 L22.2002371,5.37019479 C25.5063647,7.93136461 27.4053388,11.8144285 27.4053388,16.0141962 C27.3916772,23.4223111 21.4215211,29.4534529 14.0715349,29.4534529 L14.0715349,29.4534529 Z" fill="#4FD3F4"></path>
                                            <path d="M18.2520103,32.7719579 L16.0798025,22.0453381 C18.8804478,21.4670094 20.9160388,18.9471488 20.9160388,16.0555054 C20.9160388,13.4805659 19.30396,11.1672512 16.8995036,10.2997582 L20.5744967,0 C27.268722,2.42347252 31.7634162,8.88147599 31.7634162,16.0555054 C31.7634162,20.007418 30.383586,23.8629425 27.8971595,26.9060529 C25.451718,29.907854 22.0226352,31.9870833 18.2520103,32.7719579 L18.2520103,32.7719579 Z" fill-opacity="0.82" fill="url(#linearGradient-4)"></path>
                                            <path d="M14.372092,30.5688011 C10.9020241,30.5688011 7.56857314,29.3019859 4.95919143,27.0162107 C2.37713308,24.7442052 0.683084219,21.6322462 0.191263581,18.2311228 L7.34998619,17.1708536 C7.59589651,18.8507607 8.42925926,20.3929705 9.71345759,21.5220883 C10.9976559,22.6512062 12.6643814,23.2846138 14.372092,23.2846138 C16.3120511,23.2846138 18.1153935,22.5135089 19.4679002,21.1089964 L24.6593403,26.1900269 C21.9406651,28.9990518 18.2793337,30.5688011 14.372092,30.5688011 L14.372092,30.5688011 Z" fill="url(#linearGradient-5)" style="mix-blend-mode: multiply;"></path>
                                            <path d="M9.34459211,11.0570934 L4.23512215,5.89344454 C6.94013566,3.16703795 10.5468203,1.66613736 14.372092,1.66613736 C18.1017318,1.66613736 21.6264464,3.0981893 24.3177982,5.70066831 L19.30396,10.9607053 C17.9787766,9.66635062 16.230081,8.96409437 14.3857536,8.96409437 C12.4731178,8.96409437 10.6834372,9.70765981 9.34459211,11.0570934 L9.34459211,11.0570934 Z" fill="url(#linearGradient-6)"></path>
                                            <path d="M8.15602557,15.2568611 L0.0546467375,14.444447 C0.314218741,11.7731193 1.3115217,9.21194952 2.90993877,7.03633214 C5.20510175,3.92437311 8.55221442,1.87268331 12.3501627,1.23927572 L13.6890077,9.33587709 C11.9812972,9.62504143 10.4785119,10.5476134 9.45388558,11.9383561 C8.71615463,12.9160069 8.26531904,14.0588946 8.15602557,15.2568611 L8.15602557,15.2568611 Z" fill="url(#linearGradient-7)" style="mix-blend-mode: multiply;"></path>
                                            <path d="M26.6402845,18.3412807 L23.0745849,17.7354125 C23.156555,17.2397022 23.1975401,16.743992 23.1975401,16.2345119 C23.1975401,11.2774091 19.2083282,7.25664783 14.2901219,7.25664783 C12.4731178,7.25664783 10.7244222,7.80743704 9.24896032,8.8401668 L7.19970766,5.83836561 C9.28994537,4.37877421 11.7490486,3.62143905 14.3037835,3.62143905 C21.2165958,3.62143905 26.8315481,9.28079817 26.8315481,16.2482817 C26.8178864,16.9367682 26.7632397,17.6527941 26.6402845,18.3412807 L26.6402845,18.3412807 Z" fill-opacity="0.6" fill="url(#linearGradient-8)"></path>
                                        </g>
                                    </g>
                                </g>
                            </g>
                        </g>
                    </g>
                </g>
            </g>
        </g>
    </g>
</svg>