<?xml version="1.0" encoding="UTF-8" standalone="no"?>
<svg width="157px" height="95px" viewBox="0 0 157 95" version="1.1" xmlns="http://www.w3.org/2000/svg" xmlns:xlink="http://www.w3.org/1999/xlink">
    <!-- Generator: Sketch 3.7.2 (28276) - http://www.bohemiancoding.com/sketch -->
    <title>Page 1</title>
    <desc>Created with Sketch.</desc>
    <defs></defs>
    <g id="Page-1" stroke="none" stroke-width="1" fill="none" fill-rule="evenodd">
        <g transform="translate(1.000000, 0.000000)">
            <path d="M100.250788,39.7139155 C113.661141,41.1281127 124.112965,52.5098592 124.112965,66.339493 C124.112965,81.1259718 112.166435,93.1138028 97.4281412,93.1138028 L24.5457882,93.1138028" id="Stroke-1" stroke="#666B81" stroke-width="3" stroke-linecap="round" stroke-linejoin="round"></path>
            <path d="M83.9813471,43.2090028 C87.9293471,40.8924958 92.5246412,39.5662986 97.4287588,39.5662986 C98.3824059,39.5662986 99.3237,39.6158761 100.250171,39.7137915" id="Stroke-3" stroke="#666B81" stroke-width="3" stroke-linecap="round" stroke-linejoin="round"></path>
            <path d="M24.5207118,93.113431 C11.3191235,93.113431 0.617770588,82.3761915 0.617770588,69.1303324 C0.617770588,55.8844732 11.3191235,45.1472338 24.5207118,45.1472338 C28.3563,45.1472338 31.9806529,46.053262 35.1924176,47.6645296 L35.0985353,47.1997408 C35.0985353,28.9168113 49.8714176,14.0943887 68.0944765,14.0943887 C83.6023588,14.0943887 96.6112412,24.8291493 100.144182,39.297093" id="Stroke-5" stroke="#666B81" stroke-width="3" stroke-linecap="round" stroke-linejoin="round"></path>
            <path d="M37.8256941,61.197938 L51.4139294,61.197938" id="Stroke-7" stroke="#666B81" stroke-width="3" stroke-linecap="round" stroke-linejoin="round"></path>
            <path d="M72.4139294,61.197938 L86.0021647,61.197938" id="Stroke-9" stroke="#666B81" stroke-width="3" stroke-linecap="round" stroke-linejoin="round"></path>
            <path d="M58.8638647,77.6908732 C58.8638647,75.8651831 60.3388059,74.3852958 62.1583941,74.3852958 C63.9767471,74.3852958 65.4516882,75.8651831 65.4516882,77.6908732 C65.4516882,79.5165634 63.9767471,80.9964507 62.1583941,80.9964507 C60.3388059,80.9964507 58.8638647,79.5165634 58.8638647,77.6908732 L58.8638647,77.6908732 Z" id="Stroke-11" stroke="#666B81" stroke-width="3" stroke-linecap="round" stroke-linejoin="round"></path>
            <g id="Group" transform="translate(106.000000, 13.000000)" fill="#666B81">
                <path d="M9.25200069,5.91475681 C9.25200069,6.12628732 9.21188997,6.32790235 9.13166851,6.51960188 C9.05144706,6.71130141 8.95618408,6.87655962 8.85089343,7.01537653 L4.50890727,12.6870385 L9.1500526,12.6870385 L9.1500526,14.9676019 L0.929024913,14.9676019 L0.929024913,13.7182498 C0.929024913,13.5926535 0.964121799,13.4356582 1.03431557,13.2472638 C1.10450934,13.0588695 1.20311488,12.878738 1.33013218,12.7068695 L5.71222907,6.96579906 L1.2098,6.96579906 L1.2098,4.68523568 L9.25200069,4.68523568 L9.25200069,5.91475681 Z" id="Fill-13"></path>
                <path d="M21.7458235,0.52056338 L21.7458235,1.73025352 C21.7458235,1.90212207 21.7157405,2.07068545 21.6605882,2.23594366 C21.6037647,2.40120188 21.5252145,2.5565446 21.4249377,2.70197183 L14.5660035,12.3894085 L21.5252145,12.3894085 L21.5252145,14.9674366 L10.2541003,14.9674366 L10.2541003,13.6784225 C10.2541003,13.526385 10.2808408,13.376 10.3343218,13.2272676 C10.3878028,13.0785352 10.4613391,12.9413709 10.5549308,12.8157746 L17.4339204,3.09859155 L10.8156505,3.09859155 L10.8156505,0.52056338 L21.7458235,0.52056338 Z" id="Fill-15"></path>
            </g>
            <path d="M144.425941,4.98749296 C144.425941,5.18332394 144.390118,5.36923944 144.316,5.54647887 C144.244353,5.72371831 144.157882,5.87616901 144.060294,6.00507042 L140.104882,11.2491268 L144.334529,11.2491268 L144.334529,13.3574085 L136.842471,13.3574085 L136.842471,12.2022535 C136.842471,12.0869859 136.874588,11.9407324 136.937588,11.7672113 C137.001824,11.5924507 137.092,11.4263662 137.208118,11.2664789 L141.201824,5.95921127 L137.098176,5.95921127 L137.098176,3.85092958 L144.425941,3.85092958 L144.425941,4.98749296 Z" id="Fill-17" fill="#666B81"></path>
            <path d="M155.8114,0 L155.8114,1.11797183 C155.8114,1.27785915 155.785459,1.43278873 155.733576,1.58647887 C155.682929,1.73892958 155.610047,1.88270423 155.518635,2.01656338 L149.269282,10.9739718 L155.610047,10.9739718 L155.610047,13.3574085 L145.339812,13.3574085 L145.339812,12.1650704 C145.339812,12.0250141 145.364518,11.8861972 145.413929,11.7486197 C145.462106,11.6110423 145.528812,11.4846197 145.614047,11.3681127 L151.881929,2.38343662 L145.851224,2.38343662 L145.851224,0 L155.8114,0 Z" id="Fill-19" fill="#666B81"></path>
        </g>
    </g>
</svg>