<?xml version="1.0" encoding="utf-8"?>
<!-- Generator: Adobe Illustrator 19.2.0, SVG Export Plug-In . SVG Version: 6.00 Build 0)  -->
<!DOCTYPE svg PUBLIC "-//W3C//DTD SVG 1.1//EN" "http://www.w3.org/Graphics/SVG/1.1/DTD/svg11.dtd">
<svg version="1.1" id="Layer_1" xmlns="http://www.w3.org/2000/svg" xmlns:xlink="http://www.w3.org/1999/xlink" x="0px" y="0px"
	 viewBox="0 0 57 57" enable-background="new 0 0 57 57" xml:space="preserve">
<g>
	<g>
		<circle fill="#32BEA6" cx="28.5" cy="28.5" r="28.5"/>
	</g>
	<g>
		<g>
			<g>
				<path fill="#3E3E3F" d="M45.082,27.464c0-2.128-1.285-3.952-3.118-4.75c-0.044-0.531-0.485-0.95-1.028-0.95
					c-0.572,0-1.036,0.464-1.036,1.036v9.433c0,0.572,0.464,1.036,1.036,1.036v7.667c0,1.143-0.93,2.073-2.073,2.073H18.136
					c-1.143,0-2.073-0.93-2.073-2.073v-7.667c0.572,0,1.036-0.464,1.036-1.036V22.8c0-0.572-0.464-1.036-1.036-1.036
					c-0.543,0-0.983,0.419-1.028,0.95c-1.833,0.798-3.118,2.622-3.118,4.75c0,1.691,0.817,3.192,2.073,4.137v9.335
					c0,2.286,1.86,4.145,4.145,4.145h20.727c2.286,0,4.145-1.86,4.145-4.145v-9.335C44.265,30.655,45.082,29.155,45.082,27.464z"/>
			</g>
		</g>
		<g>
			<g>
				<rect x="18.136" y="11.918" fill="#FFFFFF" width="20.727" height="28.5"/>
			</g>
		</g>
		<g>
			<g>
				<path fill="#E2E4E5" d="M34.718,15.805c0,0.143-0.116,0.259-0.259,0.259h-5.7c-0.143,0-0.259-0.116-0.259-0.259
					s0.116-0.259,0.259-0.259h5.7C34.602,15.545,34.718,15.661,34.718,15.805z"/>
			</g>
		</g>
		<g>
			<g>
				<path fill="#E2E4E5" d="M34.718,17.877c0,0.143-0.116,0.259-0.259,0.259h-5.7c-0.143,0-0.259-0.116-0.259-0.259
					c0-0.143,0.116-0.259,0.259-0.259h5.7C34.602,17.618,34.718,17.734,34.718,17.877z"/>
			</g>
		</g>
		<g>
			<g>
				<path fill="#E2E4E5" d="M34.718,19.95c0,0.143-0.116,0.259-0.259,0.259h-5.7c-0.143,0-0.259-0.116-0.259-0.259
					c0-0.143,0.116-0.259,0.259-0.259h5.7C34.602,19.691,34.718,19.807,34.718,19.95z"/>
			</g>
		</g>
		<g>
			<g>
				<rect x="20.727" y="14.552" fill="#9CE5F4" width="5.7" height="6.175"/>
			</g>
		</g>
		<g>
			<g>
				<path fill="#0484AB" d="M24.328,18.885c0.275-0.318,0.437-0.701,0.437-1.72c0-0.525-0.475-1.188-1.188-1.188
					s-1.188,0.663-1.188,1.188c0,1.014,0.222,1.394,0.497,1.713c-0.802,0.112-1.539,0.415-2.159,0.858v0.991h5.7v-0.991
					C25.823,19.304,25.107,19.004,24.328,18.885z"/>
			</g>
		</g>
		<g>
			<g>
				<g>
					<path fill="#C9F2F8" d="M20.727,19.736c0.62-0.443,1.357-0.745,2.159-0.858c-0.275-0.32-0.497-0.699-0.497-1.713
						c0-0.525,0.475-1.188,1.188-1.188c0.59,0,1.016,0.454,1.145,0.908l1.705-2.333h-5.7V19.736z"/>
				</g>
			</g>
			<g>
				<g>
					<path fill="#059BBF" d="M23.577,15.977c-0.712,0-1.188,0.663-1.188,1.188c0,1.014,0.222,1.394,0.497,1.713
						c-0.802,0.112-1.539,0.415-2.159,0.858v0.991h1.188l2.808-3.842C24.593,16.431,24.167,15.977,23.577,15.977z"/>
				</g>
			</g>
		</g>
		<g>
			<g>
				<path fill="#3E3E3F" d="M40.936,21.764c-0.572,0-1.036,0.464-1.036,1.036v3.627H17.1V22.8c0-0.572-0.464-1.036-1.036-1.036
					c-0.572,0-1.036,0.464-1.036,1.036v9.433c0,0.572,0.464,1.036,1.036,1.036c0.572,0,1.036-0.464,1.036-1.036V28.5h22.8v3.733
					c0,0.572,0.464,1.036,1.036,1.036s1.036-0.464,1.036-1.036V22.8C41.973,22.228,41.509,21.764,40.936,21.764z"/>
			</g>
		</g>
		<g>
			<g>
				<path fill="#DF2C2C" d="M15.027,22.8c0-0.03,0.006-0.057,0.009-0.086c-1.833,0.798-3.118,2.622-3.118,4.75
					c0,2.121,1.283,3.94,3.109,4.742V22.8z"/>
			</g>
		</g>
		<g>
			<g>
				<path fill="#FA5655" d="M15.036,22.714c-1.833,0.798-3.118,2.622-3.118,4.75h3.109V22.8
					C15.027,22.77,15.034,22.743,15.036,22.714z"/>
			</g>
		</g>
		<g>
			<g>
				<path fill="#DF2C2C" d="M41.973,22.8c0-0.03-0.006-0.057-0.009-0.086c1.833,0.798,3.118,2.622,3.118,4.75
					c0,2.121-1.283,3.94-3.109,4.742V22.8z"/>
			</g>
		</g>
		<g>
			<g>
				<path fill="#FA5655" d="M41.964,22.714c1.833,0.798,3.118,2.622,3.118,4.75h-3.109V22.8
					C41.973,22.77,41.966,22.743,41.964,22.714z"/>
			</g>
		</g>
		<g>
			<g>
				<path fill="#5B5C5F" d="M16.064,21.764c-0.572,0-1.036,0.464-1.036,1.036v4.664H17.1V22.8
					C17.1,22.228,16.636,21.764,16.064,21.764z"/>
			</g>
		</g>
		<g>
			<g>
				<path fill="#5B5C5F" d="M40.936,21.764c0.572,0,1.036,0.464,1.036,1.036v4.664H39.9V22.8
					C39.9,22.228,40.364,21.764,40.936,21.764z"/>
			</g>
		</g>
		<g>
			<g>
				<path fill="#B5BBBD" d="M25.391,30.573c0,0.572-0.464,1.036-1.036,1.036s-1.036-0.464-1.036-1.036v-6.218
					c0-0.572,0.464-1.036,1.036-1.036s1.036,0.464,1.036,1.036V30.573z"/>
			</g>
		</g>
		<g>
			<g>
				<path fill="#B5BBBD" d="M33.682,30.573c0,0.572-0.464,1.036-1.036,1.036s-1.036-0.464-1.036-1.036v-6.218
					c0-0.572,0.464-1.036,1.036-1.036s1.036,0.464,1.036,1.036V30.573z"/>
			</g>
		</g>
		<g>
			<g>
				<path fill="#E2E4E5" d="M24.355,23.318c-0.572,0-1.036,0.464-1.036,1.036v3.109h2.073v-3.109
					C25.391,23.782,24.927,23.318,24.355,23.318z"/>
			</g>
		</g>
		<g>
			<g>
				<path fill="#E2E4E5" d="M32.645,23.318c-0.572,0-1.036,0.464-1.036,1.036v3.109h2.073v-3.109
					C33.682,23.782,33.218,23.318,32.645,23.318z"/>
			</g>
		</g>
	</g>
</g>
</svg>
