<?xml version="1.0" encoding="UTF-8" standalone="no"?>
<svg width="80px" height="21px" viewBox="0 0 80 21" version="1.1" xmlns="http://www.w3.org/2000/svg" xmlns:xlink="http://www.w3.org/1999/xlink" xmlns:sketch="http://www.bohemiancoding.com/sketch/ns">
    <!-- Generator: Sketch 3.4.4 (17249) - http://www.bohemiancoding.com/sketch -->
    <title>Shape</title>
    <desc>Created with Sketch.</desc>
    <defs></defs>
    <g id="Page-1" stroke="none" stroke-width="1" fill="none" fill-rule="evenodd" sketch:type="MSPage">
        <g id="4-copy-8" sketch:type="MSArtboardGroup" transform="translate(-106.000000, -780.000000)" fill="#858FA9">
            <g id="Group" sketch:type="MSLayerGroup">
                <g transform="translate(0.000000, -44.000000)" id="Shape" sketch:type="MSShapeGroup">
                    <path d="M130.042523,833.330263 C128.858846,834.994101 127.201697,836.497845 125.777338,836.497845 C125.169717,836.518809 124.90339,836.183373 124.915227,835.509643 C124.915227,835.105595 125.013866,834.537641 125.096724,834.251758 C126.443157,833.594228 127.813264,832.858556 129.032452,831.640695 C129.713066,830.933612 130.168782,830.226528 130.190483,829.493715 C130.20232,828.80569 129.753509,828.451196 128.866737,828.440713 C127.574556,828.421654 126.02887,829.275491 125.02373,830.310387 C123.70393,831.701684 122.685967,833.670463 122.660321,835.420066 C122.644538,836.656986 123.254132,837.640423 124.904376,837.583246 C126.670029,837.535599 128.409048,836.217679 129.303711,835.267595 C129.19718,835.675455 129.12616,836.058538 129.12616,836.373009 C129.12616,837.474611 129.688406,838.254118 130.808955,838.583836 L131.033853,838.485683 C130.933241,838.190271 130.905622,837.8758 130.933241,837.528929 C131.01018,836.455915 131.449127,835.251395 132.099163,833.664746 C133.332161,830.662976 135.125432,827.226664 135.916523,825.202614 L134.032503,825.545673 C133.740529,825.606662 133.5541,825.824885 133.457433,826.028815 C132.547974,827.893724 131.615828,829.882516 130.448919,832.473567 C130.315756,832.749921 130.190483,833.041521 130.042523,833.331216 L130.042523,833.330263 Z M128.281803,829.330762 C128.574763,829.330762 128.676362,829.527068 128.676362,829.77388 C128.676362,830.944094 127.17901,832.44212 125.276248,833.531334 C125.752678,831.722648 127.103057,829.317421 128.282789,829.331715 L128.281803,829.330762 Z M160.460078,836.306303 C160.460078,837.137269 161.007529,837.649952 162.048178,837.619458 C163.123352,837.600399 164.218254,836.985751 165.12574,836.138585 C165.297373,837.03054 165.966151,837.682352 167.325408,837.634705 C168.743848,837.585152 170.097186,836.727504 171.03821,835.732631 L171.03821,836.018514 C171.03821,836.94001 171.531409,837.627082 172.618419,837.627082 C173.79026,837.627082 175.138666,836.777057 176.202003,835.311431 L176.237513,835.33049 C176.138874,835.675455 176.023465,836.264374 176.006696,836.657939 C175.990914,837.763353 176.669556,838.399918 177.614525,838.582883 L177.841396,838.493307 C177.496157,837.692835 177.977519,835.699278 178.176772,835.03603 C178.88106,832.851885 179.998649,830.355175 180.642767,829.061079 C180.34882,828.817126 179.659328,828.651314 178.926434,828.617961 C176.492004,828.534102 174.039819,829.504197 172.251479,832.559332 C171.945696,833.09298 171.608348,833.704769 171.361748,834.350864 C171.10923,834.678677 170.843889,834.968371 170.727494,835.075101 C170.08239,835.675455 169.163067,836.447339 168.231907,836.456868 C167.699252,836.468303 167.408265,836.107138 167.420102,835.468666 C167.431939,833.024368 169.664157,829.309797 171.178278,829.300268 C171.597497,829.300268 171.775049,829.476562 171.775049,829.818669 C171.775049,830.225575 171.488993,830.786858 171.077666,831.146118 L171.25719,831.298589 C172.27318,830.922176 173.220122,830.240822 173.22604,829.510868 C173.22604,828.681808 172.233724,828.526478 171.353857,828.535055 C170.170179,828.550302 168.700446,829.10682 167.51381,830.357081 C166.034213,831.919907 165.267781,833.795299 165.11489,835.134183 C164.438221,835.899396 163.681653,836.420656 163.178591,836.424468 C162.892535,836.433997 162.687364,836.286291 162.687364,835.998503 C162.687364,835.743114 162.835324,835.224713 163.098692,834.550029 C163.753661,832.973862 164.699616,831.009847 165.865539,828.67609 C165.865539,828.67609 164.090022,828.961973 163.838491,829.036303 C163.569204,829.10015 163.363047,829.269774 163.244679,829.506103 C162.485153,831.061306 161.583585,832.854744 161.021338,834.192676 C160.676099,835.036983 160.459091,835.831738 160.459091,836.312021 L160.460078,836.306303 Z M177.055237,829.618551 C177.62143,829.361256 178.093914,829.347915 178.490446,829.425103 C178.342487,829.727186 177.658913,831.056541 177.127244,832.250579 C176.286833,834.124064 175.026217,836.014703 173.858321,836.281527 C173.455871,836.39588 173.219136,836.228162 173.224067,835.840314 C173.259578,834.182194 175.147544,830.48287 177.055237,829.617598 L177.055237,829.618551 Z M133.183214,835.420066 C133.169405,836.630304 133.832264,837.640423 135.520978,837.583246 C137.33595,837.535599 138.988167,836.522621 140.415484,835.072242 C140.054463,836.00422 139.747693,836.801833 139.561264,837.235422 C139.031568,838.512366 138.643914,839.548214 137.827176,840.148568 L137.915952,840.302945 C140.308953,840.436357 141.20263,838.814448 142.185082,836.167173 C143.168521,833.517992 144.000055,831.21473 144.651077,829.616645 C145.696659,829.616645 147.179215,829.650951 148.00779,829.470844 C145.842646,830.399011 144.001041,833.738122 144.216076,835.938467 C144.314716,836.913328 144.916418,837.585152 146.198736,837.585152 C148.684459,837.585152 150.775622,834.742524 151.574605,832.868085 C152.032293,831.79126 152.336104,830.876435 152.383451,829.954939 C152.97529,829.853927 153.542469,829.754821 153.825565,829.713845 C154.368084,829.643327 154.262539,830.224622 154.091892,830.662976 C153.075902,833.407451 151.316168,837.390752 151.308277,837.449834 L153.251481,837.449834 C154.092879,835.757408 154.614683,834.674865 155.283461,833.525616 C156.092307,832.169578 157.899389,829.939692 158.617486,829.933022 C158.87395,829.933022 158.940038,830.090257 158.87395,830.329446 C158.749664,831.248083 156.424724,834.762536 156.463193,836.498797 C156.484894,837.635658 157.104352,838.320824 158.182485,838.580977 L158.409356,838.457095 C158.273233,838.20933 158.254492,837.900576 158.254492,837.535599 C158.234764,836.378727 159.211298,834.350864 159.586129,833.564687 C160.184873,832.32872 161.253142,830.524799 161.187053,829.533739 C161.14957,829.047738 160.775725,828.618914 159.9146,828.612243 C158.332417,828.602714 156.758126,830.089304 155.433394,832.080955 L155.39887,832.073331 C155.928565,830.916459 156.342853,829.840586 156.329043,829.315515 C156.317206,828.835232 156.036083,828.648455 155.443258,828.648455 C155.02897,828.660843 154.45686,828.81522 153.898558,828.958161 C153.115358,829.152562 152.294675,829.358397 151.391135,829.542315 C150.834806,829.615692 150.641472,829.713845 150.659227,829.907292 C150.772663,832.94718 148.627248,836.527386 147.198943,836.539774 C146.584417,836.539774 146.445335,836.104279 146.445335,835.507737 C146.439417,833.403639 148.230716,829.869175 149.982558,829.306938 C150.130518,829.263103 150.281437,829.234515 150.381063,829.202115 L150.604975,828.634161 C150.23409,828.710396 149.35225,828.722784 148.885684,828.73422 L145.045636,828.73422 C146.061626,826.39951 147.48204,824.882425 149.569258,824.793801 C150.863412,824.752825 151.736374,825.224531 151.81134,825.941144 C151.865592,826.549122 151.690013,827.046558 151.184978,827.548759 L151.328005,827.687889 C152.470254,827.167582 153.258386,826.281345 153.266277,825.677179 C153.28206,824.740437 152.112192,824.162 150.245927,824.181059 C147.876599,824.198212 144.953901,824.714707 142.915017,828.802832 C142.305423,828.888596 141.751067,829.113491 141.290419,829.590915 L141.373277,829.770069 C141.708652,829.655715 142.103211,829.638562 142.544131,829.638562 C142.261035,830.305622 141.695829,831.763625 141.127664,833.257839 C139.411331,835.449607 137.685135,836.494033 136.420573,836.494033 C135.730094,836.514998 135.449957,836.145256 135.446011,835.505831 C135.436147,835.101783 135.538733,834.543359 135.625536,834.247947 C136.973942,833.590416 138.334185,832.854744 139.563237,831.636883 C140.23596,830.9298 140.703513,830.222716 140.725213,829.489903 C140.733105,828.801879 140.295144,828.447384 139.393576,828.436902 C138.1083,828.417843 136.562614,829.271679 135.55057,830.306575 C134.225837,831.697872 133.202942,833.665699 133.183214,835.414349 L133.183214,835.420066 Z M138.795819,829.330762 C139.089766,829.330762 139.210106,829.527068 139.210106,829.77388 C139.197283,830.944094 137.715713,832.44212 135.791251,833.531334 C136.277545,831.722648 137.622992,829.317421 138.797792,829.331715 L138.795819,829.330762 Z M165.897103,827.243817 C166.43469,827.239053 166.978196,826.751146 167.095577,826.17938 C167.226768,825.58665 166.871665,825.128284 166.326186,825.140673 C165.793532,825.145437 165.255945,825.620003 165.126727,826.212733 C165.011318,826.792122 165.346693,827.255253 165.89809,827.245723 L165.897103,827.243817 Z M146.43843,843.965104 C126.765709,843.965104 106.777341,844.195716 106.777341,844.475881 C106.777341,844.755094 126.765709,845 146.43843,845 C166.114111,845 186.101493,844.755094 186.101493,844.475881 C186.101493,844.195716 166.114111,843.965104 146.43843,843.965104 L146.43843,843.965104 Z M114.66162,830.416164 L114.789851,830.31134 C114.6123,830.033081 114.547197,829.531833 114.555089,829.236421 C114.622164,826.758769 117.326867,825.356038 121.556541,825.356038 L123.894305,825.356038 C122.535048,826.125062 121.394772,827.138041 120.520824,829.047738 C120.14402,829.87108 118.352721,834.294641 117.620814,836.282479 C116.713327,838.647683 116.131353,839.722603 115.411282,840.116168 L115.535568,840.33058 C117.560643,840.452557 118.770954,839.451967 119.548235,837.601352 C120.290006,835.857467 121.270486,833.074874 121.749875,831.83986 C123.308384,827.856559 123.988999,826.185098 125.23186,825.357943 C126.962989,825.348414 128.630988,825.348414 128.630988,825.348414 C130.490348,825.300767 131.284398,824.852884 131.866373,824.157236 L131.736169,824 C131.272562,824.243 130.260517,824.288742 129.408269,824.292553 L121.004159,824.292553 C116.281285,824.292553 113.383248,825.792485 112.913722,828.026183 C112.679946,829.103009 113.302363,830.273222 114.662606,830.41807 L114.66162,830.416164 Z"></path>
                </g>
            </g>
        </g>
    </g>
</svg>