<?xml version="1.0" encoding="utf-8"?>
<!-- Generator: Adobe Illustrator 19.2.0, SVG Export Plug-In . SVG Version: 6.00 Build 0)  -->
<!DOCTYPE svg PUBLIC "-//W3C//DTD SVG 1.1//EN" "http://www.w3.org/Graphics/SVG/1.1/DTD/svg11.dtd">
<svg version="1.1" id="Layer_1" xmlns="http://www.w3.org/2000/svg" xmlns:xlink="http://www.w3.org/1999/xlink" x="0px" y="0px"
	 viewBox="0 0 57 57" enable-background="new 0 0 57 57" xml:space="preserve">
<g>
	<circle fill="#25B7D3" cx="28.5" cy="28.5" r="28.5"/>
	<g>
		<path fill="#F0F1F1" d="M44.232,22.567c-0.181-0.181-0.43-0.285-0.705-0.285h-5.182v10.364h5.182c0.57,0,1.036-0.466,1.036-1.036
			v-8.291C44.564,23.023,44.434,22.753,44.232,22.567z"/>
		<rect x="25.391" y="34.718" fill="#84462D" width="5.182" height="10.364"/>
		<rect x="25.391" y="34.718" fill="#9C6144" width="2.591" height="10.364"/>
		<path fill="#F0F1F1" d="M36.273,34.718H12.955c-0.859,0-1.555-0.696-1.555-1.555V19.691c0-0.859,0.696-1.555,1.555-1.555h23.318
			V34.718z"/>
		<rect x="36.273" y="18.136" fill="#CFD3D4" width="2.073" height="16.582"/>
		<path fill="#DF2C2C" d="M27.982,11.918h-8.809c-1.145,0-2.073,0.928-2.073,2.073v2.591h8.809v6.736
			c0,0.572,0.464,1.036,1.036,1.036c0.572,0,1.036-0.464,1.036-1.036V11.918z"/>
		<path fill="#FA5655" d="M17.1,13.991v2.591h1.802l4.664-4.664h-4.392C18.028,11.918,17.1,12.846,17.1,13.991z"/>
		<path fill="#FFFFFF" d="M38.345,27.612l5.886-5.045c-0.181-0.181-0.43-0.285-0.705-0.285h-5.182V27.612z"/>
	</g>
</g>
</svg>
