<svg id="Layer_1" data-name="Layer 1" xmlns="http://www.w3.org/2000/svg" viewBox="0 0 57 57"><defs><style>.cls-1{fill:#25b7d3;}.cls-2{fill:#fff;}.cls-3{fill:#e2e4e5;}.cls-4{fill:#fa5655;}.cls-5{fill:#daddde;}</style></defs><title>mail</title><circle class="cls-1" cx="28.5" cy="28.5" r="28.5"/><path class="cls-2" d="M16.06,13.91a2,2,0,0,1,2-2H32.65l8.29,7V43.09a2,2,0,0,1-2,2H18.05a2,2,0,0,1-2-2V13.91Z"/><path class="cls-3" d="M32.65,11.92v5a2,2,0,0,0,2,2h6.3"/><path class="cls-4" d="M29.22,34.2H26l-0.77-2.37H22.09L21.36,34.2H18.15l4.13-11.83H25Zm-4.69-5-0.82-3.46H23.63l-0.87,3.46h1.77Z"/><rect class="cls-5" x="18.14" y="36.79" width="18.65" height="1.04"/><rect class="cls-5" x="32.13" y="33.16" width="4.66" height="1.04"/><rect class="cls-5" x="30.57" y="29.54" width="6.22" height="1.04"/><rect class="cls-5" x="29.54" y="25.91" width="7.25" height="1.04"/><rect class="cls-5" x="27.98" y="22.28" width="8.81" height="1.04"/><rect class="cls-5" x="18.14" y="39.9" width="18.65" height="1.04"/></svg>