<?xml version="1.0" standalone="no"?>
<!DOCTYPE svg PUBLIC "-//W3C//DTD SVG 1.1//EN" "http://www.w3.org/Graphics/SVG/1.1/DTD/svg11.dtd" >
<svg xmlns="http://www.w3.org/2000/svg" xmlns:xlink="http://www.w3.org/1999/xlink" version="1.1">
<metadata></metadata>
<defs>
<font id="eyeos_symbolsregular" horiz-adv-x="1228" >
<font-face units-per-em="2048" ascent="1638" descent="-410" />
<missing-glyph horiz-adv-x="1392" />
<glyph horiz-adv-x="0" />
<glyph horiz-adv-x="682" />
<glyph unicode=" "  horiz-adv-x="1392" />
<glyph unicode="&#x09;" horiz-adv-x="1392" />
<glyph unicode="&#xa0;" horiz-adv-x="1392" />
<glyph unicode="$" horiz-adv-x="1153" d="M82 100v826l512 125v-1076zM657 102v91h279v88h-279v49h279v88h-279v49h279v88h-279v49h279v88h-279v49h279v88h-279v91h414v-818h-414z" />
<glyph unicode="0" horiz-adv-x="1261" d="M86.5 578.5q12.5 26.5 38 33.5t51.5 -8l289 -205l612 602q16 15 39 14.5t39 -14t23.5 -33t-7.5 -40.5l-573 -889q-39 -62 -101 -62.5t-98 58.5l-309 493q-16 24 -3.5 50.5z" />
<glyph unicode="1" horiz-adv-x="1431" d="M82 2l227 184v-184h-227zM408 2v266l161 131v-397h-161zM668 2v475l161 129v-604h-161zM926 2v686l164 129v-815h-164zM1186 2v893l164 131v-1024h-164z" />
<glyph unicode="2" horiz-adv-x="1431" d="M82 0l362 297v-297h-362zM543 0v379l205 158v-537h-205zM844 0v625l205 159v-784h-205zM1145 0v860l205 166v-1026h-205z" />
<glyph unicode="3" horiz-adv-x="1431" d="M51 80q0 35 6.5 61.5t15.5 44t28 29.5t33.5 18t43 9t46 3.5t52.5 0.5q94 0 156 -41q90 65 285 65q155 0 229 -39q63 39 184 39q44 0 77.5 -3.5t68 -15.5t56.5 -32t36 -55.5t14 -83.5h-309q4 0 6.5 -20t2.5 -40l1 -20h-739l8 80h-301zM143 403q0 -54 39.5 -93.5 t93.5 -39.5q55 0 94.5 39.5t39.5 93.5t-39.5 93t-94.5 39q-54 0 -93.5 -39t-39.5 -93zM500 547q0 -90 63.5 -152.5t153.5 -62.5q88 0 151.5 62.5t63.5 152.5q0 89 -63.5 151t-151.5 62q-90 0 -153.5 -62t-63.5 -151zM983 463q0 -63 43.5 -107.5t103.5 -44.5q63 0 106.5 44.5 t43.5 107.5t-43.5 106t-106.5 43q-60 0 -103.5 -43t-43.5 -106z" />
<glyph unicode="4" horiz-adv-x="1638" d="M76 2l311 234v-234h-311zM485 2v309l162 121v-430h-162zM745 2v508l162 121v-629h-162zM1004 2v700l163 125v-825h-163zM1264 2v897l163 127v-1024h-163z" />
<glyph unicode="5" horiz-adv-x="1404" d="M82 0v1024h309q154 0 249 -62t118 -178q-97 -34 -170 -104q2 6 2 22q0 183 -213 183h-123v-375h111q68 0 120 22q-35 -68 -41 -159q-18 -2 -55 -2h-135v-371h-172zM510 291q-28 157 63.5 290.5t249.5 161.5q56 10 105 5l-64 -367l-317 -197q-29 59 -37 107zM573 137 l316 197l237 -283q-82 -59 -168 -74q-109 -19 -214 22.5t-171 137.5zM911 379l66 362q119 -26 200 -114.5t99 -200.5q11 -46 4 -111zM965 324l358 -66q-21 -131 -125 -211z" />
<glyph unicode="6" />
<glyph unicode="7" />
<glyph unicode="8" />
<glyph unicode="9" />
<glyph unicode="A" horiz-adv-x="1669" d="M82 303q0 97 58.5 176.5t150.5 110.5q11 193 151 326t336 133q144 0 263 -77t178 -204q154 -6 261 -117t107 -266q0 -161 -115.5 -273t-287.5 -112h-262v453q37 -46 161 -170l101 96l-348 342l-349 -342l101 -96q120 115 164 168v-451h-353q-132 0 -224.5 87t-92.5 216z " />
<glyph unicode="B" horiz-adv-x="1171" d="M82 684q0 151 104 258t254 107t254.5 -107t104.5 -258q0 -119 -68 -215l80 -88q46 -3 80 -37l172 -188q27 -30 27 -72q0 -49 -31.5 -79t-79.5 -30q-49 0 -78 33l-172 191q-29 32 -29 73l2 15l-75 84q-87 -52 -187 -52q-150 0 -254 107t-104 258zM242 684q0 -86 57 -147.5 t141 -61.5t141.5 61.5t57.5 147.5t-57.5 147.5t-141.5 61.5t-141 -61.5t-57 -147.5z" />
<glyph unicode="C" horiz-adv-x="1007" d="M84 877l211 147h424l205 -147h-840zM86 0v797h840v-797h-840zM254 133h500v199h-500v-199zM254 465h500v199h-500v-199zM414 231q0 18 12 28.5t31 10.5h94q19 0 31 -10.5t12 -28.5t-12 -28t-31 -10h-94q-19 0 -31 10t-12 28zM414 565q0 18 12 28.5t31 10.5h94 q19 0 31 -10.5t12 -28.5t-12 -28.5t-31 -10.5h-94q-19 0 -31 10.5t-12 28.5z" />
<glyph unicode="D" horiz-adv-x="948" d="M82 0v1024h434l350 -344v-680h-784zM168 86h612v561l-299 291h-313v-852zM233 162h480v51h-480v-51zM233 283h480v51h-480v-51zM233 403h480v52h-480v-52zM233 524h480v51h-480v-51zM492 657v217l219 -217h-219z" />
<glyph unicode="E" horiz-adv-x="1210" d="M82 96v832h1046v-832h-1046zM174 221h862l-336 385l-194 -237l-115 139zM297 727q0 -44 31 -75t75 -31q43 0 75 31t32 75t-32 75.5t-75 31.5q-44 0 -75 -31.5t-31 -75.5z" />
<glyph unicode="F" horiz-adv-x="1210" d="M82 98v826h412l104 -127h530v-699h-1046z" />
<glyph unicode="G" horiz-adv-x="1210" d="M82 98v826h412l104 -127h530v-699h-1046zM252 252h706v391h-454l-107 127h-145v-518z" />
<glyph unicode="H" horiz-adv-x="1210" d="M82 98v826h575l105 -127h366v-699h-1046zM221 221h768v453h-397l-176 -94h-195v-359z" />
<glyph unicode="I" horiz-adv-x="1267" d="M82 72v880h1104v-880h-1104zM221 195h826v634h-826v-634zM248 283l172 225l115 -139l194 237l283 -323h-764zM326 666q0 44 31 75t75 31q43 0 75 -31t32 -75t-32 -75.5t-75 -31.5q-44 0 -75 31.5t-31 75.5z" />
<glyph unicode="J" horiz-adv-x="1355" d="M82 563l596 484l256 -209l-4 112l166 -2v-239l178 -146l-78 -94l-518 420l-518 -420zM279 0v457l397 323l401 -323v-457h-299v305h-200v-305h-299z" />
<glyph unicode="K" horiz-adv-x="1323" d="M82 184l446 314l134 -82l131 80l448 -312v-53h-1157zM82 877v57h1159v-57l-579 -357zM84 289v483l367 -227zM872 545l369 229v-487z" />
<glyph unicode="L" horiz-adv-x="1198" d="M82 156q0 21 14 35t33 14h168q19 0 33 -14t14 -35q0 -19 -14 -32t-33 -13h-168q-19 0 -33 13t-14 32zM82 395q0 20 14 33.5t33 13.5h168q19 0 33 -13.5t14 -33.5q0 -21 -14 -34t-33 -13h-168q-19 0 -33 13t-14 34zM82 633q0 20 14 33.5t33 13.5h168q19 0 33 -13.5 t14 -33.5t-14 -34.5t-33 -14.5h-168q-19 0 -33 14.5t-14 34.5zM82 870q0 20 14 34t33 14h168q19 0 33 -14t14 -34t-14 -33.5t-33 -13.5h-168q-19 0 -33 13.5t-14 33.5zM248 0v72h53q31 0 57.5 26.5t26.5 57.5q0 32 -26.5 59t-57.5 27h-53v67h53q31 0 57.5 26.5t26.5 57.5 q0 32 -26.5 59t-57.5 27h-53v68h53q31 0 57.5 26.5t26.5 57.5q0 32 -26.5 59t-57.5 27h-53v69h53q31 0 57.5 26.5t26.5 57.5q0 32 -26.5 59t-57.5 27h-53v70h737v-1026h-737zM518 375h363q0 39 -22 84t-56 69q-44 -41 -109 -41q-60 0 -102 39q-32 -24 -53 -68t-21 -83z M580 645q0 -47 33.5 -81t80.5 -34q49 0 83 33.5t34 81.5t-34 82.5t-83 34.5q-47 0 -80.5 -34.5t-33.5 -82.5zM1038 0v303h78v-303h-78zM1038 371v291h78v-291h-78zM1038 725v301h78v-301h-78z" />
<glyph unicode="M" horiz-adv-x="1298" d="M90 416q-9 49 -9 97q-1 91 31 179q48 134 157 228.5t253 119.5q57 9 104 9q23 0 44 -2l-90 -508l-441 -273q-38 81 -49 150zM178 201l436 274l326 -395q-105 -79 -227 -100q-49 -9 -97 -9q-102 -1 -201 39q-146 58 -237 191zM647 537l90 499q165 -34 276 -156t138 -280 q8 -40 8 -84q0 -32 -4 -67zM719 457l498 -88q-29 -177 -173 -295z" />
<glyph unicode="N" horiz-adv-x="1021" d="M82 834q0 50 22.5 79t67.5 29h154v131q0 8 5.5 13.5t12.5 5.5h336q7 0 12.5 -5.5t5.5 -13.5v-131h152q45 0 67.5 -29t22.5 -79h-858zM150 764h724l-40 -680q-2 -34 -25.5 -59t-56.5 -25h-480q-33 0 -56.5 25t-25.5 59zM287 643l30 -526q0 -7 5.5 -13t13.5 -6h24 q8 0 13.5 6t5.5 13l-31 526q0 8 -5.5 13.5t-12.5 5.5h-25q-7 0 -12.5 -5.5t-5.5 -13.5zM420 942h184v74h-184v-74zM481 117q0 -7 5.5 -13t13.5 -6h24q8 0 13.5 6t5.5 13v526q0 7 -5.5 13t-13.5 6h-24q-8 0 -13.5 -6t-5.5 -13v-526zM645 117q0 -7 5.5 -13t13.5 -6h24 q8 0 13.5 6t5.5 13l30 526q0 8 -5.5 13.5t-12.5 5.5h-25q-7 0 -12.5 -5.5t-5.5 -13.5z" />
<glyph unicode="O" horiz-adv-x="1241" d="M82 403v220l123 8q11 44 37 92l-80 90l157 158l91 -80q48 26 92 37l8 123h221l8 -123q37 -9 95 -39l90 78l155 -154l-80 -90q25 -46 37 -94l123 -8v-220l-123 -8q-8 -35 -39 -94l78 -90l-153 -156l-91 80q-46 -25 -94 -37l-8 -123h-219l-8 123q-35 8 -94 39l-91 -78 l-155 154l80 90q-25 46 -37 94zM367 512q0 -104 75 -179t179 -75t178.5 75t74.5 179t-74.5 179t-178.5 75t-179 -75t-75 -179zM453 512q0 69 49.5 118.5t118.5 49.5t118 -49.5t49 -118.5t-49 -118.5t-118 -49.5t-118.5 49.5t-49.5 118.5z" />
<glyph unicode="P" horiz-adv-x="1243" d="M82 516q0 145 73 268.5t197.5 195t270.5 71.5q145 0 269 -71.5t196.5 -195t72.5 -268.5q0 -109 -43 -209.5t-115 -173t-171.5 -115.5t-208.5 -43q-146 0 -270.5 73t-197.5 197.5t-73 270.5zM276 750l142 -514h98l100 358q0 3 3.5 22.5t3.5 28.5h2q0 -37 6 -51l98 -358h96 l142 514h-90l-91 -379l-4.5 -22.5t-5.5 -24.5h-2q0 19 -4 47l-98 379h-86l-109 -379q-1 -5 -3.5 -23t-2.5 -26h-2q-5 41 -8 49l-92 379h-93z" />
<glyph unicode="Q" horiz-adv-x="1243" d="M82 516q0 145 73 268.5t197.5 195t270.5 71.5q145 0 269 -71.5t196.5 -195t72.5 -268.5q0 -109 -43 -209.5t-115 -173t-171.5 -115.5t-208.5 -43q-146 0 -270.5 73t-197.5 197.5t-73 270.5zM475 256h86v186h68q85 0 136.5 47t51.5 123q0 75 -48.5 116.5t-137.5 41.5h-156 v-514zM561 512v188h62q106 0 106 -92q0 -46 -29.5 -71t-83.5 -25h-55z" />
<glyph unicode="R" horiz-adv-x="1243" d="M82 516q0 145 73 268.5t197.5 195t270.5 71.5q145 0 269 -71.5t196.5 -195t72.5 -268.5q0 -109 -43 -209.5t-115 -173t-171.5 -115.5t-208.5 -43q-146 0 -270.5 73t-197.5 197.5t-73 270.5zM479 256h289v72h-203v151h176v72h-176v145h191v74h-277v-514z" />
<glyph unicode="S" horiz-adv-x="1243" d="M82 516q0 145 73 268.5t197.5 195t270.5 71.5q145 0 269 -71.5t196.5 -195t72.5 -268.5q0 -109 -43 -209.5t-115 -173t-171.5 -115.5t-208.5 -43q-146 0 -270.5 73t-197.5 197.5t-73 270.5zM403 256h82v336q0 60 -2 72h2q7 -18 15 -31l245 -377h95v514h-82v-332 q0 -55 2 -69l-21 32l-237 369h-99v-514z" />
<glyph unicode="T" horiz-adv-x="1243" d="M82 516q0 145 73 268.5t197.5 195t270.5 71.5q145 0 269 -71.5t196.5 -195t72.5 -268.5q0 -109 -43 -209.5t-115 -173t-171.5 -115.5t-208.5 -43q-146 0 -270.5 73t-197.5 197.5t-73 270.5zM375 510q0 -116 66 -187t175 -71q113 0 180.5 72.5t67.5 197.5q0 114 -66 184 t-173 70q-115 0 -182.5 -72t-67.5 -194zM465 514q0 85 43 138t113 53q73 0 113 -50t40 -141q0 -90 -41 -139t-115 -49q-70 0 -111.5 51t-41.5 137z" />
<glyph unicode="U" horiz-adv-x="1300" d="M82 51q0 16 6 25l512 938q18 37 49 37t49 -37l512 -936q15 -25 2.5 -51.5t-47.5 -26.5h-1032q-22 0 -36.5 14.5t-14.5 36.5zM252 119h797l-402 729zM590 627q0 47 61 47q27 0 43.5 -11.5t16.5 -35.5q0 -20 -2 -45q-2 -14 -9 -63.5t-9.5 -71t-5.5 -60t-3 -70.5h-57 q0 79 -33 265q-2 12 -2 45zM596 221q0 23 16 38t39 15q22 0 38 -15t16 -38t-16 -39t-38 -16q-23 0 -39 16t-16 39z" />
<glyph unicode="V" horiz-adv-x="1243" d="M82 516q0 145 73 268.5t197.5 195t270.5 71.5q145 0 269 -71.5t196.5 -195t72.5 -268.5q0 -109 -43 -209.5t-115 -173t-171.5 -115.5t-208.5 -43q-146 0 -270.5 73t-197.5 197.5t-73 270.5zM518 666l27 -263h153l27 261v182h-207v-180zM522 162h201v135h-201v-135z" />
<glyph unicode="W" horiz-adv-x="1222" d="M82 516q0 145 70 268t192 195t268 72q145 0 267 -72t192 -195t70 -268q0 -146 -70 -270.5t-192 -197.5t-267 -73q-146 0 -268 73t-192 197t-70 271zM209 518q0 -112 53 -208.5t146 -154t204 -57.5q167 0 284.5 124t117.5 296q0 170 -117 292t-285 122q-169 0 -286 -122 t-117 -292zM444 578q28 4 37 4q46 0 46 -46q0 -12 -3 -28l-37 -186q-4 -21 -4 -39q1 -35 15 -55q22 -32 92 -33q53 0 123 20l4 41q-7 0 -19 -1t-16 -1q-35 0 -44 22t1 50l37 186q4 20 3 38q0 34 -14 56q-22 32 -94 33q-49 0 -122 -21zM563 772q0 34 22.5 56t57.5 22 t57.5 -22t22.5 -56t-22.5 -56t-57.5 -22t-57.5 22t-22.5 56z" />
<glyph unicode="X" horiz-adv-x="1064" d="M84 86q-3 12 -3 24q1 46 37 90q46 55 124 72q28 7 55 6q31 0 61 -8v621h13l612 104l-2 -770q0 -5 1 -10q0 -48 -43 -92q-47 -49 -118 -64q-31 -8 -60 -8q-43 0 -83 18q-66 29 -78 87q-3 13 -3 26q-1 43 35 86q46 55 126 74q27 7 54 6q30 0 60 -8v354l-405 -65v-484 q-2 -50 -47 -94t-115 -61q-31 -8 -60 -8q-43 0 -83 18q-66 28 -78 86z" />
<glyph unicode="Y" horiz-adv-x="1243" d="M82 516q0 145 73 268.5t197.5 195t270.5 71.5q145 0 269 -71.5t196.5 -195t72.5 -268.5q0 -109 -43 -209.5t-115 -173t-171.5 -115.5t-208.5 -43q-146 0 -270.5 73t-197.5 197.5t-73 270.5zM301 272q0 -31 24 -54t74 -23q53 0 91 28.5t38 67.5v311l281 64v-254 q-24 4 -35 4q-50 0 -88.5 -27t-38.5 -74q0 -32 29 -53.5t69 -21.5q48 0 88.5 28.5t40.5 77.5v494l-411 -95v-380q-18 6 -39 6q-47 0 -85 -26.5t-38 -72.5z" />
<glyph unicode="Z" horiz-adv-x="948" d="M82 0v1024h434l350 -344v-680h-784zM168 86h612v561l-299 291h-313v-852zM233 156q-6 28 16 54.5t60 35.5q33 4 56 -2v297h6l293 49v-369q2 -25 -21 -48t-57 -30q-15 -4 -29 -4q-21 0 -40 8q-32 13 -38 41t16.5 55t59.5 36q31 6 55 -3v170l-194 -30v-232 q0 -24 -21.5 -44.5t-54.5 -28.5q-15 -4 -29 -4q-21 0 -40 8q-32 13 -38 41zM492 657v217l219 -217h-219z" />
<glyph unicode="a" horiz-adv-x="1165" d="M82 430v170h414v404h170v-404h417v-170h-417v-410h-170v410h-414z" />
<glyph unicode="b" horiz-adv-x="1093" d="M82 172l344 344l-340 340l121 121l340 -342l342 340l121 -119l-342 -340l344 -342l-121 -121l-344 342l-342 -344z" />
<glyph unicode="c" horiz-adv-x="1185" d="M82 41v170h1022v-170h-1022zM82 428v170h1022v-170h-1022zM82 813v170h1022v-170h-1022z" />
<glyph unicode="d" horiz-adv-x="1130" d="M82 0v328h643v-328h-643zM82 649v369h346v-369h-346zM549 455v563h500v-563h-500z" />
<glyph unicode="e" horiz-adv-x="831" d="M82 502v28l541 523l122 -119l-419 -418l424 -418l-125 -123z" />
<glyph unicode="f" horiz-adv-x="831" d="M82 98l424 418l-420 418l123 119l541 -523v-28l-543 -527z" />
<glyph unicode="g" horiz-adv-x="948" d="M82 0v1024h434l350 -344v-680h-784zM233 131h480v62h-480v-62zM233 262h480v62h-480v-62zM233 393h480v62h-480v-62zM233 524h480v62h-480v-62zM492 668h243l-243 241v-241z" />
<glyph unicode="h" horiz-adv-x="1191" d="M90 553q-9 -48 -9 -94q0 -58 14 -114q25 -100 82 -173t137 -122.5t171 -65.5q42 -7 84 -7q85 0 167 29q124 44 212 146q65 80 94 180l-161 43q-17 -61 -64 -117q-55 -66 -137 -94q-53 -18 -106 -17q-29 0 -58 5q-130 22 -208 126q-60 80 -60 180q0 31 6 64 q27 146 134 216q81 53 173 54q30 0 62 -6q112 -19 194 -98l17 -18h-8q-60 0 -222 -13l6 -157l500 47l-39 495l-160 -18q13 -163 25 -225l-18 20q-114 102 -265 127q-45 8 -90 8q-49 0 -95 -9q-92 -17 -169.5 -64t-134 -132t-74.5 -196z" />
<glyph unicode="i" horiz-adv-x="1187" d="M111 39v246h245v-246h-245zM111 391v246h245v-246h-245zM111 743v246h245v-246h-245zM471 39v246h246v-246h-246zM471 391v246h246v-246h-246zM471 743v246h246v-246h-246zM831 39v246h246v-246h-246zM831 391v246h246v-246h-246zM831 743v246h246v-246h-246z" />
<glyph unicode="j" horiz-adv-x="1259" d="M82 51q0 7 6 25l492 938q18 37 49 37t49 -37l491 -936q15 -25 2.5 -51.5t-47.5 -26.5h-991q-22 0 -36.5 14.5t-14.5 36.5zM555.5 641q0.5 -11 3.5 -25q2 -13 11 -59.5t12 -63.5t8 -52t6.5 -64t1.5 -62h70q0 51 4 95.5t14.5 112.5t13.5 93q2 31 2 56q0 28 -19.5 42.5 t-51.5 14.5q-34 0 -54 -14.5t-20 -42.5q0 -1 -1 -10.5t-0.5 -20.5zM563 180q0 -28 20 -47.5t48 -19.5q26 0 45.5 19.5t19.5 47.5t-19 47t-46 19q-28 0 -48 -19t-20 -47z" />
<glyph unicode="k" horiz-adv-x="1212" d="M82 127q0 50 35 84.5t86 34.5q49 0 84 -35t35 -84q0 -51 -34.5 -86t-84.5 -35q-51 0 -86 35t-35 86zM82 514q0 50 35 84.5t86 34.5q49 0 84 -34.5t35 -84.5q0 -51 -34.5 -86t-84.5 -35q-51 0 -86 35t-35 86zM82 899q0 50 35 84.5t86 34.5q49 0 84 -35t35 -84 q0 -51 -34.5 -86t-84.5 -35q-51 0 -86 35t-35 86zM436 41v170h694v-170h-694zM436 428v170h694v-170h-694zM436 813v170h694v-170h-694z" />
<glyph unicode="l" horiz-adv-x="1146" d="M82 670q1 -1 2 -2.5t3 -5t1 -5.5q9 5 24.5 13t61.5 22t90 17h14q39 0 88 -14q58 -17 105 -60l37 4q34 52 84.5 84t98 40t89.5 9h14q33 0 54 -4l26 -6q-2 2 -2 5t1 5l1 2q-8 5 -22 12q-16 6 -60 18q-43 11 -85 11q-2 1 -4 1q-45 0 -107.5 -23t-118.5 -72q-66 33 -131 39 q-21 2 -40 2q-40 0 -70 -8q-46 -14 -82 -32.5t-54 -35.5zM266 641l162 -596h115l116 416q0 2 3.5 25t3.5 34h2q0 -43 8 -59l112 -416h113l164 596h-104l-105 -438q-3 -12 -6.5 -30.5t-5.5 -25.5h-2q0 32 -6 56l-113 438h-100l-125 -438q-1 -11 -5 -30.5t-4 -27.5h-2 q-4 48 -8 58l-106 438h-107zM481 842q4 -2 4 -4q5 5 15 12t40 22q32 15 62 22q17 4 37 4q16 0 35 -2q42 -6 80 -30l24 8q18 40 49 68t62.5 39t60.5 16.5t48 4.5l18 -1v7q-6 3 -17 6.5t-43.5 7.5t-63 -1t-71 -27t-73.5 -62q-42 12 -77 12q-9 0 -19 -1q-42 -4 -74 -20 t-53.5 -34t-32.5 -33z" />
<glyph unicode="m" horiz-adv-x="1097" d="M82 670q1 -1 2 -2.5t3 -5t1 -5.5q9 5 24.5 13t61.5 22t90 17h14q39 0 88 -14q58 -17 105 -60l37 4q34 52 84.5 84t98 40t89.5 9h14q33 0 54 -4l26 -6q-2 2 -2 5t1 5l1 2q-8 5 -22 12q-16 6 -60 18q-43 11 -85 11q-2 1 -4 1q-45 0 -107.5 -23t-118.5 -72q-66 33 -131 39 q-21 2 -40 2q-40 0 -70 -8q-46 -14 -82 -32.5t-54 -35.5zM481 842q4 -2 4 -4q5 5 15 12t40 22q32 15 62 22q17 4 37 4q16 0 35 -2q42 -6 80 -30l24 8q18 40 49 68t62.5 39t60.5 16.5t48 4.5l18 -1v7q-6 3 -17 6.5t-43.5 7.5t-63 -1t-71 -27t-73.5 -62q-42 12 -77 12 q-9 0 -19 -1q-42 -4 -74 -20t-53.5 -34t-32.5 -33zM592 45h98v215h80q98 0 157.5 54.5t59.5 142.5t-56 135t-159 47h-180v-594zM690 340v219h72q123 0 123 -106q0 -54 -33.5 -83.5t-95.5 -29.5h-66z" />
<glyph unicode="n" horiz-adv-x="1097" d="M82 670q1 -1 2 -2.5t3 -5t1 -5.5q9 5 24.5 13t61.5 22t90 17h14q39 0 88 -14q58 -17 105 -60l37 4q34 52 84.5 84t98 40t89.5 9h14q33 0 54 -4l26 -6q-2 2 -2 5t1 5l1 2q-8 5 -22 12q-16 6 -60 18q-43 11 -85 11q-2 1 -4 1q-45 0 -107.5 -23t-118.5 -72q-66 33 -131 39 q-21 2 -40 2q-40 0 -70 -8q-46 -14 -82 -32.5t-54 -35.5zM481 842q4 -2 4 -4q5 5 15 12t40 22q32 15 62 22q17 4 37 4q16 0 35 -2q42 -6 80 -30l24 8q18 40 49 68t62.5 39t60.5 16.5t48 4.5l18 -1v7q-6 3 -17 6.5t-43.5 7.5t-63 -1t-71 -27t-73.5 -62q-42 12 -77 12 q-9 0 -19 -1q-42 -4 -74 -20t-53.5 -34t-32.5 -33zM600 45h334v84h-234v174h203v84h-203v168h220v86h-320v-596z" />
<glyph unicode="o" horiz-adv-x="1097" d="M82 670q1 -1 2 -2.5t3 -5t1 -5.5q9 5 24.5 13t61.5 22t90 17h14q39 0 88 -14q58 -17 105 -60l37 4q34 52 84.5 84t98 40t89.5 9h14q33 0 54 -4l26 -6q-2 2 -2 5t1 5l1 2q-8 5 -22 12q-16 6 -60 18q-43 11 -85 11q-2 1 -4 1q-45 0 -107.5 -23t-118.5 -72q-66 33 -131 39 q-21 2 -40 2q-40 0 -70 -8q-46 -14 -82 -32.5t-54 -35.5zM225 45h97v389q0 66 -5 84h5q9 -26 16 -37l285 -436h108v596h-96v-385q0 -64 4 -80q-1 1 -25 37l-274 428h-115v-596zM481 842q4 -2 4 -4q5 5 15 12t40 22q32 15 62 22q17 4 37 4q16 0 35 -2q42 -6 80 -30l24 8 q18 40 49 68t62.5 39t60.5 16.5t48 4.5l18 -1v7q-6 3 -17 6.5t-43.5 7.5t-63 -1t-71 -27t-73.5 -62q-42 12 -77 12q-9 0 -19 -1q-42 -4 -74 -20t-53.5 -34t-32.5 -33z" />
<glyph unicode="p" horiz-adv-x="1097" d="M82 670q1 -1 2 -2.5t3 -5t1 -5.5q9 5 24.5 13t61.5 22t90 17h14q39 0 88 -14q58 -17 105 -60l37 4q34 52 84.5 84t98 40t89.5 9h14q32 0 54 -4l26 -6q-2 2 -2 5t1 5l1 2q-8 5 -22.5 12t-59.5 18q-42 12 -85 12h-4q-45 -1 -107.5 -23.5t-118.5 -71.5q-66 33 -131 39 q-21 3 -40 3q-40 0 -70 -9q-46 -14 -82 -32.5t-54 -35.5zM438 342q0 -134 77.5 -216.5t203.5 -82.5q130 0 208.5 84t78.5 229q0 131 -77.5 212t-201.5 81q-132 0 -210.5 -83.5t-78.5 -223.5zM481 842q4 -2 4 -4q5 5 15 12t40.5 22t61.5 22q17 4 37 4q17 0 35 -2 q42 -6 80 -30l24 8q18 40 49 68t62.5 39t60.5 16.5t48 4.5l18 -1v7q-6 3 -17 6.5t-43.5 7.5t-63 -1t-71 -27t-73.5 -62q-42 12 -77 12q-10 0 -19 -1q-42 -4 -74 -20t-53.5 -34t-32.5 -33zM543 346q0 99 49.5 160t130.5 61q86 0 132 -58t46 -163q0 -104 -47.5 -161.5 t-132.5 -57.5q-82 0 -130 59.5t-48 159.5z" />
<glyph unicode="q" horiz-adv-x="948" d="M82 0v1024h434l350 -344v-680h-784zM168 86h612v561l-299 291h-313v-852zM223 135v383q86 86 207 86q118 0 203.5 -83.5t85.5 -201.5q0 -99 -68 -184h-428zM297 442l65 -231h41l48 164l2 22h2q0 -18 4 -22l45 -164h39l65 231h-39l-41 -170q-2 -3 -4 -10.5t-4 -9.5 q0 14 -2 20l-43 170h-39l-47 -170q0 -3 -2 -10.5t-2 -9.5q0 14 -4 20l-43 170h-41zM492 657v217l219 -217h-219z" />
<glyph unicode="r" horiz-adv-x="948" d="M82 0v1024h434l350 -344v-680h-784zM168 86h612v561l-299 291h-313v-852zM223 135v383q86 86 207 86q118 0 203.5 -83.5t85.5 -201.5q0 -99 -68 -184h-428zM379 213h43v94h35q44 0 70 24.5t26 63.5q0 38 -25 59t-69 21h-80v-262zM422 344v96h33q53 0 53 -47 q0 -49 -57 -49h-29zM492 657v217l219 -217h-219z" />
<glyph unicode="s" horiz-adv-x="948" d="M82 0v1024h434l350 -344v-680h-784zM168 86h612v561l-299 291h-313v-852zM223 135v383q86 86 207 86q118 0 203.5 -83.5t85.5 -201.5q0 -99 -68 -184h-428zM369 213h147v37h-104v76h90v36h-90v74h98v39h-141v-262zM492 657v217l219 -217h-219z" />
<glyph unicode="t" horiz-adv-x="948" d="M82 0v1024h434l350 -344v-680h-784zM168 86h612v561l-299 291h-313v-852zM223 135v383q86 86 207 86q118 0 203.5 -83.5t85.5 -201.5q0 -99 -68 -184h-428zM330 197h41v209q5 -14 8 -17l125 -192h49v262h-43v-170q0 -27 2 -35q-1 2 -4.5 7t-5.5 9l-121 189h-51v-262z M492 657v217l219 -217h-219z" />
<glyph unicode="u" horiz-adv-x="948" d="M82 0v1024h434l350 -344v-680h-784zM168 86h612v561l-299 291h-313v-852zM223 135v383q86 86 207 86q118 0 203.5 -83.5t85.5 -201.5q0 -99 -68 -184h-428zM319 330q0 -62 34.5 -98.5t92.5 -36.5q59 0 94 37.5t35 103.5q0 60 -33.5 96.5t-90.5 36.5q-61 0 -96.5 -38 t-35.5 -101zM367 332q0 45 22 72.5t60 27.5t58.5 -26t20.5 -74q0 -47 -20.5 -73t-58.5 -26t-60 26.5t-22 72.5zM492 657v217l219 -217h-219z" />
<glyph unicode="v" horiz-adv-x="1124" d="M82 541q7 8 21 20t60 36t95 32v395h434l150 -147q40 17 84 17h5q40 0 61 -7l24 -8q-2 -5 0 -7q-13 1 -26 1q-60 0 -116 -27l168 -166v-680h-784v580q-43 -3 -85.5 -16t-63.5 -24l-21 -12q1 2 -0.5 5t-3.5 5zM344 86h612v561l-149 146q-20 -28 -29 -48l-24 -8 q-38 24 -80 30q-17 2 -32 2q-22 -1 -42 -5q-32 -8 -59 -20.5t-41 -23.5l-15 -11l-4 4q2 3 5.5 8t16.5 19t27.5 25.5t38.5 24t49 19t59.5 6t70.5 -11.5q15 19 22 24l-113 111h-313v-307q73 -7 133 -39q55 49 117 72q59 22 106 23q2 0 4 -1q48 -1 87.5 -9.5t60.5 -20.5l22 -11 q-4 -8 0 -12q-10 3 -27 6t-65 3q-3 0 -6 1q-46 0 -86 -9q-44 -9 -96 -40.5t-86 -83.5l-37 -4q-56 50 -127 67v-487zM424 471h59l60 -244q6 -10 6 -28q0 3 2 13t2 15l68 244h57l63 -244q2 -10 2 -28q2 3 5 13t6 15l57 244h57l-94 -332h-57l-62 234q-6 8 -6 30h-2q0 -4 -3 -15 t-3 -15l-63 -234h-60z" />
<glyph unicode="w" horiz-adv-x="1124" d="M82 541q7 8 21 20t60 36t95 32v395h434l150 -147q40 17 84 17h5q40 0 61 -7l24 -8q-2 -5 0 -7q-13 1 -26 1q-60 0 -116 -27l168 -166v-680h-784v580q-43 -3 -85.5 -16t-63.5 -24l-21 -12q1 2 -0.5 5t-3.5 5zM344 86h612v561l-149 146q-20 -28 -29 -48l-24 -8 q-38 24 -80 30q-17 2 -32 2q-22 -1 -42 -5q-32 -8 -59 -20.5t-41 -23.5l-15 -11l-4 4q2 3 5.5 8t16.5 19t27.5 25.5t38.5 24t49 19t59.5 6t70.5 -11.5q15 19 22 24l-113 111h-313v-307q73 -7 133 -39q55 49 117 72q59 22 106 23q2 0 4 -1q48 -1 87.5 -9.5t60.5 -20.5l22 -11 q-4 -8 0 -12q-10 3 -27 6t-65 3q-3 0 -6 1q-46 0 -86 -9q-44 -9 -96 -40.5t-86 -83.5l-37 -4q-56 50 -127 67v-487zM561 139v332h101q57 0 88.5 -26.5t31.5 -73.5q0 -50 -33.5 -81.5t-89.5 -31.5h-43v-119h-55zM616 305h35q74 0 74 62q0 29 -18 45t-50 16h-41v-123z" />
<glyph unicode="x" horiz-adv-x="1124" d="M82 541q7 8 21 20t60 36t95 32v395h434l150 -147q40 17 84 17h5q40 0 61 -7l24 -8q-2 -5 0 -7q-13 1 -26 1q-60 0 -116 -27l168 -166v-680h-784v580q-43 -3 -85.5 -16t-63.5 -24l-21 -12q1 2 -0.5 5t-3.5 5zM344 86h612v561l-149 146q-20 -28 -29 -48l-24 -8 q-38 24 -80 30q-17 2 -32 2q-22 -1 -42 -5q-32 -8 -59 -20.5t-41 -23.5l-15 -11l-4 4q2 3 5.5 8t16.5 19t27.5 25.5t38.5 24t49 19t59.5 6t70.5 -11.5q15 19 22 24l-113 111h-313v-307q73 -7 133 -39q55 49 117 72q59 22 106 23q2 0 4 -1q48 -1 87.5 -9.5t60.5 -20.5l22 -11 q-4 -8 0 -12q-10 3 -27 6t-65 3q-3 0 -6 1q-46 0 -86 -9q-44 -9 -96 -40.5t-86 -83.5l-37 -4q-56 50 -127 67v-487zM555 139v332h178v-49h-123v-94h113v-45h-113v-97h131v-47h-186z" />
<glyph unicode="y" horiz-adv-x="1124" d="M82 541q7 8 21 20t60 36t95 32v395h434l150 -147q40 17 84 17q2 1 5 1q39 0 61 -8l24 -8q-2 -5 0 -7q-13 1 -26 1q-60 0 -116 -27l168 -166v-680h-784v580q-43 -3 -85.5 -16t-63.5 -24l-21 -12q1 2 -0.5 5t-3.5 5zM344 86h612v561l-149 146q-20 -28 -29 -48l-24 -8 q-38 24 -80 30q-17 2 -32 2q-22 0 -42 -5q-32 -8 -59 -20.5t-41 -23.5l-15 -11l-4 4q2 3 5.5 8t16.5 19t27.5 25.5t38.5 24t49 19t59.5 6t70.5 -11.5q15 19 22 24l-113 111h-313v-307q73 -7 133 -39q56 49 117 72q59 22 106 22h4q48 -1 87.5 -9.5t60.5 -20.5l22 -11 q-4 -8 0 -12q-10 3 -27 6t-65 3q-3 1 -6 1q-45 0 -86 -9q-44 -9 -96 -40.5t-86 -83.5l-37 -4q-56 50 -127 67v-487zM514 139v334h64l153 -240q3 -4 6 -9l4.5 -7.5t3.5 -3.5q-4 8 -4 43v217h56v-334h-62l-157 244q-9 13 -11 20v-264h-53z" />
<glyph unicode="z" horiz-adv-x="1124" d="M82 541q7 8 21 20t60 36t95 32v395h434l150 -147q40 17 84 17h5q40 0 61 -7l24 -8q-2 -5 0 -7q-13 1 -26 1q-60 0 -116 -27l168 -166v-680h-784v580q-43 -3 -85.5 -16t-63.5 -24l-21 -12q1 2 -0.5 5t-3.5 5zM344 86h612v561l-149 146q-20 -28 -29 -48l-24 -8 q-38 24 -80 30q-17 2 -32 2q-22 -1 -42 -5q-32 -8 -59 -20.5t-41 -23.5l-15 -11l-4 4q2 3 5.5 8t16.5 19t27.5 25.5t38.5 24t49 19t59.5 6t70.5 -11.5q15 19 22 24l-113 111h-313v-307q73 -7 133 -39q55 49 117 72q59 22 106 23q2 0 4 -1q48 -1 87.5 -9.5t60.5 -20.5l22 -11 q-4 -8 0 -12q-10 3 -27 6t-65 3q-3 0 -6 1q-46 0 -86 -9q-44 -9 -96 -40.5t-86 -83.5l-37 -4q-56 50 -127 67v-487zM492 293q0 79 43.5 126.5t119.5 47.5q70 0 113 -46t43 -120q0 -82 -44.5 -129t-117.5 -47q-72 0 -114.5 45.5t-42.5 122.5zM551 295q0 -57 26.5 -89 t73.5 -32q49 0 75 31t26 90q0 60 -26 92.5t-75 32.5q-47 0 -73.5 -34.5t-26.5 -90.5z" />
<glyph unicode="~" horiz-adv-x="1263" d="M82 0h436v143h-264v301h264v144h-264v293h379v145h-551v-1026zM580 0v784h602v-784h-602zM670 98h84v90h-84v-90zM670 225h84v90h-84v-90zM670 350h84v90h-84v-90zM670 475h84v90h-84v-90zM670 600h84v90h-84v-90zM782 98h84v90h-84v-90zM782 225h84v90h-84v-90zM782 350 h84v90h-84v-90zM782 475h84v90h-84v-90zM782 600h84v90h-84v-90zM895 98h84v90h-84v-90zM895 225h84v90h-84v-90zM895 350h84v90h-84v-90zM895 475h84v90h-84v-90zM895 600h84v90h-84v-90zM1008 98h84v90h-84v-90zM1008 225h84v90h-84v-90zM1008 350h84v90h-84v-90z M1008 475h84v90h-84v-90zM1008 600h84v90h-84v-90z" />
<glyph unicode="&#xa2;" horiz-adv-x="1153" d="M82 100v826l512 125v-1076zM657 102v99h70v110h-70v58h70v110h-70v64h70v110h-70v58h70v110h-70v99h414v-818h-414zM788 201h177v110h-177v-110zM788 369h177v110h-177v-110zM788 543h177v110h-177v-110zM788 711h177v110h-177v-110z" />
<glyph unicode="&#xa3;" horiz-adv-x="1167" d="M82 100v826l512 125v-1076zM657 367v49l156 112l27 238l245 -139l-219 -381zM657 467v272l58 101l86 -49l-31 -236z" />
<glyph unicode="&#xa4;" horiz-adv-x="1155" d="M82 100v826l512 125v-1076zM657 102v97h238v47h-238v69h238v47h-238v70h238v47h-238v70h238v47h-238v70h238v47h-238v69h238v47h-238v91h334v-66h80v-180h-80v-572h-334zM1026 102v250h47v-250h-47zM1026 389v248h47v-248h-47z" />
<glyph unicode="&#xa5;" horiz-adv-x="1679" d="M82 1026l283 -1026h194l199 715q14 58 14 102h4q0 -73 12 -102l142 -522v612l-56 221h-174l-217 -756q-14 -91 -14 -98h-4q-4 74 -12 98l-191 756h-180zM995 0v784h602v-784h-602zM1085 690l41 -149h31l31 104q0 2 1 8t1 9q0 -13 2 -17l27 -104h30l41 149h-26l-29 -112 q0 -11 -2 -13v13l-31 112h-26l-29 -112q-2 -4 -2 -13q0 11 -6 13l-25 112h-29zM1098 96h397v39h-397v-39zM1098 166h397v39h-397v-39zM1098 236h397v38h-397v-38zM1098 305h397v37h-397v-37zM1098 373h397v39h-397v-39zM1098 442h397v39h-397v-39zM1233 836h172l53 190h-178 zM1352 512h143v39h-143v-39zM1352 582h143v39h-143v-39zM1352 651h143v39h-143v-39z" />
<glyph unicode="&#xc0;" horiz-adv-x="1464" d="M82 0v1026h733v-274h-139v141h-455v-760h455v141h139v-274h-733zM457 440v168h610v232l315 -314l-315 -315v229h-610z" />
<glyph unicode="&#xc1;" horiz-adv-x="1323" d="M205 178v53l108 107v254q0 122 75.5 216t193.5 122v37q0 34 23 58t57 24q32 0 55.5 -24t23.5 -58v-37q117 -28 194 -122.5t77 -215.5v-254l106 -107v-53h-913zM528 111h269q0 -56 -39 -96t-96 -40q-56 0 -95 40t-39 96z" />
<glyph unicode="&#xc4;" horiz-adv-x="1323" d="M205 178v53l108 107v256q0 122 75.5 216t193.5 122v37q0 34 23 58t57 24q32 0 55.5 -24t23.5 -58v-37q117 -28 194 -122.5t77 -215.5v-256l106 -107v-53h-913zM420 285h483v309q0 100 -70.5 171t-170.5 71t-171 -71t-71 -171v-309zM528 111h269q0 -56 -39 -96t-96 -40 q-56 0 -95 40t-39 96z" />
<glyph unicode="&#xc7;" />
<glyph unicode="&#xc8;" />
<glyph unicode="&#xc9;" />
<glyph unicode="&#xca;" />
<glyph unicode="&#xcb;" />
<glyph unicode="&#xcc;" />
<glyph unicode="&#xcd;" />
<glyph unicode="&#xce;" />
<glyph unicode="&#xcf;" />
<glyph unicode="&#xe0;" />
<glyph unicode="&#xe1;" horiz-adv-x="1212" d="M82 0l90 279l639 639l188 -189l-639 -639zM172 90l139 41l-94 100zM872 979l11 10q2 2 5.5 6.5t14.5 14.5t23 18t29.5 14.5t35.5 6.5q49 0 94 -45q31 -31 41 -63.5t2 -56.5t-20.5 -43.5t-24.5 -29.5l-12 -10l-10 -10z" />
<glyph unicode="&#xe4;" horiz-adv-x="2062" d="M82 512q7 11 20 29.5t58.5 73t97.5 104t136 109.5t174.5 103.5t213 73t250.5 29.5q123 0 242 -29t210.5 -75t173.5 -101.5t139.5 -111t99.5 -101.5t63 -75l20 -29q-7 -11 -20.5 -29.5t-60 -73t-99 -104t-137 -109.5t-174.5 -103.5t-210.5 -73t-246.5 -29.5 q-113 0 -217.5 18t-186 48t-154.5 69t-127 82.5t-99.5 87t-75.5 82.5t-51 69t-30 48zM645 510q0 -164 114.5 -278.5t278.5 -114.5t279 114.5t115 278.5t-115 278.5t-279 114.5t-278.5 -114.5t-114.5 -278.5zM821 510q0 91 63 154t154 63t154 -63t63 -154t-63 -154t-154 -63 t-154 63t-63 154z" />
<glyph unicode="&#xe7;" />
<glyph unicode="&#xe8;" horiz-adv-x="1212" d="M82 0l65 295l607 606l229 -229l-606 -606zM299 274l57 -57l459 459l-57 57zM803 950l65 66q45 33 99 33q67 0 115 -48t48 -116q0 -56 -32 -99l-66 -65z" />
<glyph unicode="&#xe9;" horiz-adv-x="1236" d="M82 516q0 234 151 385.5t385 151.5t385.5 -151.5t151.5 -385.5t-151.5 -385t-385.5 -151t-385 151t-151 385zM266 375q0 -58 40.5 -98.5t99.5 -40.5q58 0 98.5 40t40.5 99t-40.5 99t-98.5 40q-59 0 -99.5 -40.5t-40.5 -98.5zM481 762q0 -58 40.5 -98.5t99.5 -40.5 t99 40.5t40 98.5t-40 98.5t-99 40.5t-99.5 -40.5t-40.5 -98.5zM698 375q0 -58 40.5 -98.5t99.5 -40.5q58 0 98.5 40t40.5 99t-40.5 99t-98.5 40q-59 0 -99.5 -40.5t-40.5 -98.5z" />
<glyph unicode="&#xea;" horiz-adv-x="1476" d="M82 272q22 52 56 94t71 67.5t76 44.5t73.5 28t62.5 14t44 6h16q76 1 166 -34l6 -72q-10 -6 -29.5 -19t-84 -68.5t-133.5 -129.5q-81 5 -162 22.5t-122 32.5zM299 864q0 50 19 87t49 56t58.5 28t55.5 9q47 0 94 -22t72 -76q-81 -120 -35 -307q-54 -66 -131 -66 q-83 0 -132.5 78t-49.5 213zM424 59q27 63 68.5 114t86 82.5t92 55t89.5 34t76 17t54 6.5l19 1q14 0 39 -2t93 -19t127 -46t124.5 -92.5t102.5 -150.5q-25 -10 -69 -24.5t-172 -39t-245 -24.5t-238.5 22t-184.5 44zM688 774q0 62 23 107.5t55 66t64.5 32.5t55.5 14l23 1 q9 0 24 -1.5t53 -13.5t67 -32.5t53 -66t24 -107.5q0 -164 -60.5 -258t-160.5 -94t-160.5 94t-60.5 258z" />
<glyph unicode="&#xeb;" horiz-adv-x="1787" d="M82 0v236q0 61 56 112.5t138.5 82t167.5 47t154 16.5t155 -16.5t168.5 -47t138.5 -82t56 -112.5v-236h-1034zM377 811q0 92 65 157.5t156 65.5q92 0 156.5 -65.5t64.5 -157.5q0 -91 -64.5 -156t-156.5 -65q-91 0 -156 65t-65 156zM969 811q0 92 64.5 157.5t156.5 65.5 q91 0 156 -65.5t65 -157.5q0 -91 -65 -156t-156 -65q-92 0 -156.5 65t-64.5 156zM1075 487v2q39 5 115 5q69 0 154 -16.5t167.5 -47t138.5 -82t56 -112.5v-236h-442v236q0 79 -54.5 148t-134.5 103z" />
<glyph unicode="&#xec;" />
<glyph unicode="&#xed;" horiz-adv-x="1241" d="M82 395l526 543h29l522 -541l-119 -123l-417 420l-418 -424z" />
<glyph unicode="&#xee;" horiz-adv-x="1241" d="M82 664l119 122l417 -419l418 424l123 -125l-526 -543h-29z" />
<glyph unicode="&#xef;" />
<glyph unicode="&#xf7;" horiz-adv-x="1492" d="M82 502q0 -229 130.5 -374.5t344.5 -152.5v152q-134 9 -212.5 112.5t-78.5 270.5q0 174 88 281.5t232 107.5q121 0 198 -65t103 -189h186q-32 184 -161 293t-318 109q-235 0 -373.5 -148t-138.5 -397zM623 82l303 211l92 -53l88 53l305 -211v-37h-786zM623 553v39h788 v-39l-393 -244zM625 152v329l249 -153zM1161 328l250 155v-331z" />
<glyph unicode="&#x2000;" horiz-adv-x="682" />
<glyph unicode="&#x2001;" horiz-adv-x="1365" />
<glyph unicode="&#x2002;" horiz-adv-x="682" />
<glyph unicode="&#x2003;" horiz-adv-x="1365" />
<glyph unicode="&#x2004;" horiz-adv-x="455" />
<glyph unicode="&#x2005;" horiz-adv-x="341" />
<glyph unicode="&#x2006;" horiz-adv-x="227" />
<glyph unicode="&#x2007;" horiz-adv-x="227" />
<glyph unicode="&#x2008;" horiz-adv-x="170" />
<glyph unicode="&#x2009;" horiz-adv-x="273" />
<glyph unicode="&#x200a;" horiz-adv-x="75" />
<glyph unicode="&#x202f;" horiz-adv-x="273" />
<glyph unicode="&#x205f;" horiz-adv-x="341" />
<glyph unicode="&#x20ac;" horiz-adv-x="1153" d="M82 100v826l512 125v-1076zM657 102v91h320v47h-320v39h320v47h-320v39h320v47h-320v39h320v47h-320v422h414v-818h-414zM715 690q0 -52 37.5 -89.5t89.5 -37.5t89.5 37.5t37.5 89.5h-127v127q-52 0 -89.5 -37.5t-37.5 -89.5z" />
<glyph unicode="&#x25fc;" horiz-adv-x="1024" d="M0 0v1024h1024v-1024h-1024z" />
</font>
</defs>
</svg>
