<svg id="Layer_1" data-name="Layer 1" xmlns="http://www.w3.org/2000/svg" viewBox="0 0 57 57"><defs><style>.cls-1{fill:#ffc400;}.cls-2{fill:#fff;}.cls-3{fill:#e0e0e0;}.cls-4{fill:#64b5f6;}.cls-5{fill:#fb8c00;}.cls-6{fill:#4db6ac;}</style></defs><title>mail</title><circle class="cls-1" cx="28.5" cy="28.5" r="28.5"/><path class="cls-2" d="M16.06,13.91a2,2,0,0,1,2-2H32.65l8.29,7V43.09a2,2,0,0,1-2,2H18.05a2,2,0,0,1-2-2V13.91Z"/><path class="cls-3" d="M32.65,11.92v5a2,2,0,0,0,2,2h6.3"/><rect class="cls-4" x="22.28" y="28.28" width="3.63" height="10.07"/><rect class="cls-5" x="27.98" y="22.28" width="3.63" height="16.06"/><rect class="cls-6" x="33.68" y="32.33" width="3.63" height="6.01"/><polygon class="cls-3" points="20.21 39.9 20.21 22.28 19.17 22.28 19.17 40.94 37.83 40.94 37.83 39.9 20.21 39.9"/></svg>