<svg id="Layer_1" data-name="Layer 1" xmlns="http://www.w3.org/2000/svg" viewBox="0 0 57 57"><defs><style>.cls-1{fill:#ffc400;}.cls-2{fill:#733725;}.cls-3{fill:#f0f1f1;}.cls-4{fill:#fff;}.cls-5{fill:#d32f2f;}.cls-6{fill:#ef5350;}.cls-7{fill:#212121;}.cls-8{fill:#5b5c5f;}</style></defs><title>mail</title><circle class="cls-1" cx="28.5" cy="28.5" r="28.5"/><rect class="cls-2" x="11.92" y="11.92" width="33.16" height="33.16" rx="1.55" ry="1.55"/><rect class="cls-3" x="16.06" y="16.06" width="24.87" height="24.87"/><polygon class="cls-4" points="43.01 37.83 13.99 37.83 16.06 28.5 40.94 28.5 43.01 37.83"/><path class="cls-5" d="M25,28.5s0-6.54,0-6.55a1.33,1.33,0,0,0-1.33-1.33,4.84,4.84,0,0,0-1.3.23l-1.73.51a1.19,1.19,0,1,0,.75,2.24l0.95-.25s0,5.15,0,5.15L22,32.37a1.64,1.64,0,0,0,3.28,0C25.14,30.82,25.08,30,25,28.5Z"/><path class="cls-6" d="M23.62,34a1.55,1.55,0,0,0,1.64-1.59C25.14,30.82,25.08,30,25,28.5H22.29L22,32.37A1.55,1.55,0,0,0,23.62,34Z"/><path class="cls-5" d="M35.38,31.08c-2,0-2.42,0-4.38,0a23.17,23.17,0,0,0,2.16-1.81s0.88-.8.85-0.8c1.64-1.35,2.36-2.33,2.36-4.1,0-2.3-1.68-3.79-4.22-3.79a4.83,4.83,0,0,0-4,1.81,1.35,1.35,0,0,0-.32.84,1.22,1.22,0,0,0,1.23,1.23A1.23,1.23,0,0,0,30,24.1,2.59,2.59,0,0,1,32,23a1.5,1.5,0,0,1,1.65,1.59c0,1-2.12,2.94-2.12,2.94s-1.12.93-1.15,0.93C27.59,31,27,31.39,26.77,32.27s0.38,1.5,1.49,1.52c2.91,0.06,4.79.06,7.7,0a1.16,1.16,0,0,0,1.16-1.37A1.68,1.68,0,0,0,35.38,31.08Z"/><path class="cls-6" d="M26.77,32.27c-0.26.93,0.38,1.5,1.49,1.52,2.91,0.06,4.79.06,7.7,0a1.16,1.16,0,0,0,1.16-1.37,1.68,1.68,0,0,0-1.73-1.33c-2,0-2.42,0-4.38,0a32,32,0,0,0,3-2.61H30.35C27.59,31,27,31.39,26.77,32.27Z"/><path class="cls-7" d="M18.14,26.43a0.52,0.52,0,0,0-.52.52v3.11a0.52,0.52,0,1,0,1,0V26.95A0.52,0.52,0,0,0,18.14,26.43Z"/><path class="cls-8" d="M18.65,26.95a0.52,0.52,0,1,0-1,0V28.5h1V26.95Z"/><path class="cls-7" d="M38.86,26.43a0.52,0.52,0,0,0-.52.52v3.11a0.52,0.52,0,1,0,1,0V26.95A0.52,0.52,0,0,0,38.86,26.43Z"/><path class="cls-8" d="M39.38,26.95a0.52,0.52,0,1,0-1,0V28.5h1V26.95Z"/></svg>